<svg width="102" height="30" viewBox="0 0 102 30" fill="none" xmlns="http://www.w3.org/2000/svg">
<g id="Group 373428">
<path id="Vector" d="M12.7591 29.0605H0V27.1115H3.05893V8.16238C3.05893 4.79666 2.59874 4.76058 1.86785 4.76058H0V2.81152H11.7304C17.6136 2.81152 20.862 5.97873 20.862 9.41664C20.7995 11.0246 20.1513 12.5543 19.0395 13.7176C17.9277 14.881 16.4289 15.5977 14.8254 15.733V15.8503C19.6349 16.2293 22.1614 19.0987 22.1614 22.2298C22.1253 25.767 18.7596 29.0605 12.7591 29.0605ZM10.4671 4.77861H8.36467V14.8848H11.4236C14.1306 14.8848 16.0887 12.1778 16.0887 9.65123C16.0887 7.43148 14.5547 4.77861 10.4671 4.77861ZM11.6943 17.1136H8.36467V27.0934H11.198C15.0871 27.0934 16.9639 24.4496 16.9639 22.0042C16.9556 21.3327 16.8105 20.6699 16.5376 20.0563C16.2647 19.4427 15.8697 18.8911 15.3766 18.4351C14.8835 17.9792 14.3027 17.6285 13.6696 17.4043C13.0365 17.1802 12.3644 17.0874 11.6943 17.1316V17.1136Z" fill="#F53B36"/>
<path id="Vector_2" d="M24.1825 29.0603V27.3369H26.4384V16.3735C26.4384 13.0078 26.0143 13.0077 25.2924 13.0077H23.993V11.1399L30.9049 10.8331L31.2478 14.9207L33.1608 12.8544C34.5775 11.3294 36.1024 10.5985 39.1613 10.8331C39.5239 11.4589 39.7196 12.1673 39.7298 12.8904C39.7561 13.1768 39.7205 13.4655 39.6253 13.7369C39.5301 14.0083 39.3776 14.256 39.1781 14.4632C38.9786 14.6704 38.7369 14.8322 38.4693 14.9376C38.2017 15.043 37.9145 15.0896 37.6274 15.0741C36.5959 14.9618 35.6372 14.4888 34.9203 13.7386L31.2117 17.745V27.3369H33.6571V29.0603H24.1825Z" fill="#F53B36"/>
<path id="Vector_3" d="M54.059 29.5119C53.3575 29.5814 52.6549 29.391 52.0844 28.9769C51.514 28.5627 51.1153 27.9536 50.964 27.2651L50.8106 26.4981C50.2038 27.3984 49.3913 28.1413 48.4405 28.6654C47.4896 29.1894 46.4277 29.4796 45.3424 29.5119C42.5181 29.5119 40.4518 27.8697 40.4518 25.0002C40.4518 22.1308 43.3212 18.5124 50.6572 18.359V16.3288C50.6572 13.6217 49.2405 12.169 47.2193 12.169C46.7952 13.8473 45.3424 15.3362 43.8897 15.3362C42.8249 15.3362 41.9406 14.6143 41.5978 12.7735C43.3573 11.2125 45.956 10.8696 48.248 10.8696C51.9566 10.8696 55.4667 12.6743 55.4667 16.9063V24.0528C55.4667 26.8771 55.584 27.5629 56.5765 27.5629C57.0555 27.54 57.5291 27.4519 57.9842 27.3012V28.9434C56.694 29.2423 55.381 29.4325 54.059 29.5119ZM50.6211 20.1908C47.3276 20.3081 44.8462 22.1398 44.8462 24.7025C44.8462 26.1552 45.6853 27.1478 46.9125 27.1478C48.4014 27.1478 49.9714 25.3882 50.6211 24.6573V20.1908Z" fill="#F53B36"/>
<path id="Vector_4" d="M71.4017 29.0607V27.3373H73.5403V16.446C73.5403 14.0819 72.9267 13.0893 71.7356 13.0893C70.8332 13.0893 69.561 14.3887 68.6767 15.1467L66.2674 17.3303V27.3373H68.415V29.0607H59.2472V27.3373H61.5031V16.3739C61.5031 13.0081 61.088 13.0081 60.3571 13.0081H59.0577V11.1403L65.8975 10.8335L66.2764 14.3887L67.9277 12.936C69.949 11.2125 71.0588 10.8335 73.0801 10.8335C75.8683 10.8335 78.3136 12.5119 78.3136 15.5347V27.3373H80.5695V29.0607H71.4017Z" fill="#F53B36"/>
<path id="Vector_5" d="M98.3366 29.5118C97.6282 29.5751 96.9218 29.3715 96.3558 28.9408C95.7899 28.51 95.4053 27.8834 95.2776 27.1838L95.0521 25.9656H94.9708C93.5542 28.4832 91.6502 29.5118 89.3583 29.5118C84.7293 29.5118 82.3291 25.6137 82.3291 21.3005C82.3291 16.5633 85.4602 10.8334 90.9194 10.8334C92.2732 10.8157 93.5975 11.2297 94.7001 12.0155V6.01495C94.7001 2.65825 94.249 2.65825 93.5181 2.65825H91.9931V0.781401L99.4825 0.474609V24.0527C99.4825 26.8409 99.5908 27.5267 100.592 27.5267C101.072 27.5098 101.546 27.4216 102 27.265V28.9072C100.798 29.2091 99.5723 29.4113 98.3366 29.5118ZM94.7272 14.533C94.3814 14.0867 93.9439 13.7196 93.4443 13.4566C92.9446 13.1935 92.3944 13.0406 91.8307 13.0081C88.8079 13.0081 87.0934 17.3664 87.0934 21.3366C87.0934 24.3144 88.1582 27.1477 90.378 27.1477C92.5977 27.1477 94.7272 24.5129 94.7272 20.8313V14.533Z" fill="#F53B36"/>
</g>
</svg>
