<svg width="110" height="32" viewBox="0 0 110 32" fill="none" xmlns="http://www.w3.org/2000/svg">
<g id="Group 373428">
<path id="Vector" d="M13.7598 31.1627H0V29.0608H3.29885V8.62551C3.29885 4.99581 2.80256 4.9569 2.01434 4.9569H0V2.85498H12.6504C18.9951 2.85498 22.4983 6.2706 22.4983 9.97815C22.4308 11.7122 21.7318 13.3619 20.5328 14.6165C19.3337 15.871 17.7174 16.644 15.9882 16.7899V16.9164C21.1749 17.3251 23.8996 20.4196 23.8996 23.7963C23.8606 27.6109 20.2309 31.1627 13.7598 31.1627ZM11.2881 4.97635H9.02072V15.8752H12.3196C15.2389 15.8752 17.3505 12.9558 17.3505 10.2311C17.3505 7.83729 15.6963 4.97635 11.2881 4.97635ZM12.6115 18.2788H9.02072V29.0413H12.0763C16.2704 29.0413 18.2945 26.1901 18.2945 23.553C18.2854 22.8288 18.129 22.114 17.8347 21.4523C17.5404 20.7905 17.1144 20.1957 16.5826 19.704C16.0508 19.2122 15.4245 18.834 14.7417 18.5923C14.059 18.3507 13.3342 18.2506 12.6115 18.2982V18.2788Z" fill="#F53B36"/>
<path id="Vector_2" d="M26.0794 31.1627V29.3041H28.5121V17.4808C28.5121 13.8511 28.0548 13.8511 27.2763 13.8511H25.875V11.8368L33.329 11.5059L33.6988 15.9141L35.7618 13.6857C37.2896 12.0411 38.9341 11.2529 42.233 11.5059C42.6239 12.1808 42.835 12.9447 42.846 13.7246C42.8744 14.0335 42.836 14.3448 42.7333 14.6375C42.6306 14.9302 42.4661 15.1973 42.251 15.4207C42.0359 15.6441 41.7752 15.8186 41.4866 15.9323C41.1981 16.046 40.8884 16.0962 40.5787 16.0795C39.4663 15.9584 38.4324 15.4484 37.6593 14.6393L33.6599 18.9599V29.3041H36.297V31.1627H26.0794Z" fill="#F53B36"/>
<path id="Vector_3" d="M58.299 31.6494C57.5425 31.7243 56.7847 31.5189 56.1695 31.0723C55.5543 30.6257 55.1244 29.9689 54.9612 29.2263L54.7958 28.3992C54.1414 29.3701 53.2652 30.1712 52.2398 30.7364C51.2144 31.3016 50.0691 31.6145 48.8988 31.6494C45.8529 31.6494 43.6245 29.8783 43.6245 26.7838C43.6245 23.6893 46.719 19.7871 54.6304 19.6217V17.4322C54.6304 14.5129 53.1026 12.9462 50.9228 12.9462C50.4655 14.7562 48.8988 16.3618 47.3321 16.3618C46.1838 16.3618 45.2301 15.5833 44.8604 13.5982C46.7579 11.9147 49.5605 11.5449 52.0322 11.5449C56.0317 11.5449 59.817 13.4911 59.817 18.055V25.762C59.817 28.8079 59.9435 29.5474 61.014 29.5474C61.5305 29.5228 62.0412 29.4278 62.532 29.2652V31.0363C61.1406 31.3586 59.7247 31.5637 58.299 31.6494ZM54.5915 21.5971C51.0396 21.7236 48.3635 23.699 48.3635 26.4627C48.3635 28.0294 49.2685 29.0998 50.592 29.0998C52.1976 29.0998 53.8908 27.2022 54.5915 26.414V21.5971Z" fill="#F53B36"/>
<path id="Vector_4" d="M77.0018 31.1632V29.3045H79.3081V17.5591C79.3081 15.0095 78.6464 13.9391 77.3619 13.9391C76.3888 13.9391 75.0167 15.3404 74.063 16.1578L71.4648 18.5127V29.3045H73.7808V31.1632H63.8941V29.3045H66.3268V17.4813C66.3268 13.8516 65.8792 13.8515 65.091 13.8515H63.6897V11.8372L71.0659 11.5063L71.4746 15.3404L73.2554 13.7737C75.4351 11.9151 76.6321 11.5063 78.8118 11.5063C81.8187 11.5063 84.4559 13.3164 84.4559 16.5763V29.3045H86.8886V31.1632H77.0018Z" fill="#F53B36"/>
<path id="Vector_5" d="M106.049 31.6496C105.285 31.7179 104.524 31.4982 103.913 31.0337C103.303 30.5693 102.888 29.8935 102.75 29.139L102.507 27.8253H102.42C100.892 30.5403 98.8386 31.6496 96.3669 31.6496C91.3748 31.6496 88.7864 27.4458 88.7864 22.7943C88.7864 17.6855 92.1631 11.5062 98.0504 11.5062C99.5104 11.4871 100.939 11.9336 102.128 12.781V6.30983C102.128 2.68987 101.641 2.68987 100.853 2.68987H99.2084V0.665814L107.285 0.334961V25.7623C107.285 28.7692 107.402 29.5087 108.482 29.5087C108.999 29.4905 109.511 29.3954 110 29.2266V30.9976C108.703 31.3231 107.382 31.5412 106.049 31.6496ZM102.157 15.496C101.784 15.0146 101.312 14.6188 100.773 14.3351C100.234 14.0514 99.6411 13.8865 99.0332 13.8514C95.7733 13.8514 93.9244 18.5516 93.9244 22.8332C93.9244 26.0445 95.0727 29.1001 97.4665 29.1001C99.8604 29.1001 102.157 26.2586 102.157 22.2883V15.496Z" fill="#F53B36"/>
</g>
</svg>
