<svg width="5" height="9" viewBox="0 0 5 9" fill="none" xmlns="http://www.w3.org/2000/svg">
<path id="back" d="M4.01077 8.82751C4.12341 8.93912 4.26053 9 4.41724 9C4.74535 9 5 8.73619 5 8.40135C5 8.23393 4.93634 8.08174 4.8237 7.96505L1.39569 4.49493L4.8237 1.03495C4.93634 0.918264 5 0.760992 5 0.598647C5 0.263811 4.74535 0 4.41724 0C4.26053 0 4.12341 0.0608794 4.01567 0.172492L0.205681 4.02818C0.0685602 4.16009 0 4.32243 0 4.5C0 4.67756 0.0685602 4.82976 0.200784 4.96674L4.01077 8.82751Z" fill="#CCCCCC"/>
</svg>
