<svg width="154" height="32" viewBox="0 0 154 32" fill="none" xmlns="http://www.w3.org/2000/svg">
<g id="Group 373427">
<path id="Vector" d="M20.4909 24.2667V22.6286H22.7053V7.02157L14.6136 24.206L13.6808 24.4942L5.49052 7.0519V22.6589H8.03103V24.297H0V22.6589H2.57084V6.73339C2.57084 3.9123 2.18408 3.87438 1.57739 3.87438H0V2.23633H8.06136V3.29803L14.8335 17.7524L21.6587 3.00985V2.25149H29.7504V3.88955H27.1644V19.8151C27.1644 22.6438 27.5512 22.6741 28.1655 22.6741H29.7353V24.3122L20.4909 24.2667Z" fill="#F53B36"/>
<path id="Vector_2" d="M42.8023 24.6528C42.2113 24.7126 41.6191 24.5522 41.1391 24.2024C40.6591 23.8525 40.3251 23.3378 40.2011 22.7569L40.0722 22.1123C39.5635 22.8708 38.8811 23.497 38.0819 23.9388C37.2826 24.3807 36.3894 24.6255 35.4765 24.6528C33.1029 24.6528 31.3662 23.2726 31.3662 20.861C31.3662 18.4495 33.7778 15.4009 39.9433 15.2719V13.5732C39.9433 11.2981 38.7526 10.0696 37.0539 10.0696C36.6975 11.4877 35.4765 12.739 34.2556 12.739C33.3607 12.739 32.6175 12.1247 32.3293 10.5853C33.8081 9.26571 35.9922 8.97754 37.9184 8.97754C41.0353 8.97754 43.9853 10.4563 43.9853 14.051V20.0572C43.9853 22.4308 44.0839 23.0148 44.9181 23.0148C45.3239 22.9973 45.725 22.9207 46.1087 22.7873V24.1675C45.0222 24.4223 43.9161 24.5846 42.8023 24.6528ZM39.9129 16.819C37.1525 16.91 35.0594 18.457 35.0594 20.5729C35.0594 21.7938 35.7723 22.628 36.7961 22.628C38.0474 22.628 39.3669 21.1492 39.9129 20.5425V16.819Z" fill="#F53B36"/>
<path id="Vector_3" d="M47.1324 24.2665V22.8256H49.0283V13.6039C49.0283 10.7828 48.6719 10.7828 48.0652 10.7828H46.9731V9.20546L52.7822 8.94762L53.0703 12.383L54.6781 10.6539C55.8687 9.36472 57.1503 8.75803 59.7212 8.94762C60.0282 9.47573 60.1952 10.0735 60.2065 10.6843C60.2275 10.9243 60.1967 11.1661 60.1161 11.3933C60.0356 11.6204 59.9072 11.8277 59.7397 12.0009C59.5722 12.1742 59.3694 12.3095 59.1451 12.3976C58.9208 12.4858 58.6802 12.5248 58.4395 12.5119C57.5726 12.4175 56.7669 12.02 56.1645 11.3895L53.0476 14.7642V22.8256H55.1028V24.2665H47.1324Z" fill="#F53B36"/>
<path id="Vector_4" d="M73.4627 24.2663L68.3286 17.6534L67.009 18.935V22.8254H68.7988V24.2663H61.0635V22.8254H62.9897V4.90535C62.9897 2.07667 62.603 2.07667 61.9887 2.07667H60.9346V0.506874L67.0014 0.249023V15.9167L72.492 10.7826L69.7315 10.4945V9.20526H77.1407V10.7826H75.624L70.8084 15.1811L76.0411 21.9229C76.1925 22.1804 76.3975 22.4024 76.6422 22.5738C76.8868 22.7452 77.1655 22.862 77.4592 22.9164C77.7095 22.9164 78.5133 22.7875 78.5133 22.7875V24.2663H73.4627Z" fill="#F53B36"/>
<path id="Vector_5" d="M82.6763 16.8498C82.6763 20.5734 84.6632 22.8257 87.3023 22.8257C88.8719 22.7265 90.353 22.0641 91.4732 20.9602L92.406 22.0219C91.7265 22.871 90.859 23.5506 89.872 24.0073C88.885 24.4639 87.8054 24.6851 86.7183 24.6534C81.3567 24.6534 78.6646 20.7327 78.6646 16.8802C78.6646 11.5186 82.608 8.94775 86.3998 8.94775C89.9034 8.94775 92.3074 11.0029 92.3074 13.9302C92.2604 14.9455 92.0021 15.9399 91.5491 16.8498H82.6763ZM88.7432 13.3841C88.7432 11.7082 87.909 10.3962 86.4681 10.3962C84.5115 10.3962 83.1995 12.6106 82.8431 14.9843H88.5156C88.6702 14.4651 88.7469 13.9258 88.7432 13.3841Z" fill="#F53B36"/>
<path id="Vector_6" d="M101.264 24.653C98.9206 24.653 96.6076 23.4927 96.6076 20.5427V10.7826H93.9761V9.20522L96.8351 8.94738L97.3508 4.51855H100.65V9.20522H104.79V10.7826H100.65V20.4138C100.65 22.0822 101.575 22.6889 102.576 22.6889C103.585 22.5696 104.559 22.2416 105.435 21.7257L106.072 23.2045C104.614 24.0781 102.962 24.5758 101.264 24.653Z" fill="#F53B36"/>
<path id="Vector_7" d="M107.369 24.2658V22.825H109.803V13.6033C109.803 10.7822 109.424 10.7822 108.809 10.7822H107.202V9.20483L113.822 8.94699V22.825H116.256V24.2658H107.369ZM111.668 6.57332C111.044 6.59181 110.437 6.36331 109.98 5.9374C109.523 5.51149 109.252 4.92252 109.226 4.29824C109.242 3.66462 109.508 3.06291 109.965 2.62405C110.423 2.1852 111.035 1.9447 111.668 1.9549C111.981 1.94989 112.291 2.00658 112.581 2.12173C112.872 2.23688 113.137 2.4082 113.361 2.62591C113.585 2.84361 113.764 3.1034 113.887 3.39038C114.01 3.67735 114.076 3.98587 114.08 4.29824C114.06 4.91915 113.795 5.50696 113.344 5.93326C112.892 6.35955 112.289 6.58967 111.668 6.57332Z" fill="#F53B36"/>
<path id="Vector_8" d="M128.17 24.2666V22.8257H129.967V13.6723C129.967 11.6778 129.459 10.8437 128.451 10.8437C127.692 10.8437 126.623 11.9357 125.887 12.5803L123.863 14.4079V22.8257H125.675V24.2666H117.962V22.8257H119.858V13.6041C119.858 10.783 119.502 10.783 118.888 10.783H117.803V9.20559L123.552 8.94775L123.87 11.9357L125.25 10.7147C126.949 9.27384 127.882 8.94775 129.588 8.94775C131.931 8.94775 133.987 10.3659 133.987 12.8988V22.8257H135.883V24.2666H128.17Z" fill="#F53B36"/>
<path id="Vector_9" d="M144.832 31.7513C139.758 31.7513 137.028 29.6279 137.028 27.5121C137.028 26.1622 138.249 24.6834 140.82 24.1071C139.501 23.6217 138.864 22.7269 138.864 21.7637C138.903 21.0961 139.186 20.466 139.658 19.9923C140.13 19.5187 140.759 19.2343 141.427 19.1929C140.448 18.7902 139.608 18.1108 139.01 17.2379C138.412 16.3651 138.082 15.3366 138.06 14.2787C138.06 11.5183 140.464 8.97021 144.885 8.97021C145.926 8.9818 146.955 9.19022 147.918 9.58448L152.802 9.22805V10.6462L150.618 11.124C151.29 12.0922 151.628 13.2529 151.581 14.4304C151.581 17.2287 149.01 19.9209 144.87 19.9209C144.483 19.9209 144.255 19.9209 144.036 19.9209C143.072 19.9209 142.519 20.338 142.519 20.9523C142.577 21.2847 142.744 21.5882 142.994 21.8148C143.244 22.0414 143.563 22.1782 143.899 22.2036L149.185 23.015C152.56 23.561 154 25.328 154 27.0268C153.985 29.3094 150.55 31.7513 144.832 31.7513ZM147.729 25.4266L143.55 24.7517C141.434 25.1991 140.691 26.1925 140.691 27.2542C140.691 28.771 142.587 30.1133 145.029 30.1133C147.471 30.1133 149.943 29.3549 149.943 27.2846C149.943 26.4201 149.139 25.6465 147.729 25.4266ZM144.93 10.4566C143.49 10.4566 142.011 11.8368 142.011 14.4759C142.011 17.115 143.421 18.3587 144.93 18.3587C146.44 18.3587 147.789 17.1681 147.789 14.4759C147.789 11.7837 146.379 10.4566 144.93 10.4566Z" fill="#F53B36"/>
</g>
</svg>
