<svg width="203" height="42" viewBox="0 0 203 42" fill="none" xmlns="http://www.w3.org/2000/svg">
<g id="Group 373427">
<path id="Vector" d="M27.0107 31.8969V29.7377H29.9297V9.16476L19.2634 31.817L18.0338 32.1968L7.2375 9.20474V29.7777H10.5864V31.9369H0V29.7777H3.38883V8.78488C3.38883 5.06616 2.87901 5.01618 2.07929 5.01618H0V2.85693H10.6263V4.25645L19.5533 23.3099L28.5502 3.87657V2.87692H39.2165V5.03618H35.8077V26.0289C35.8077 29.7577 36.3175 29.7976 37.1272 29.7976H39.1965V31.9569L27.0107 31.8969Z" fill="#F53B36"/>
<path id="Vector_2" d="M56.421 32.4061C55.642 32.4849 54.8613 32.2734 54.2286 31.8122C53.5959 31.3511 53.1556 30.6726 52.9922 29.9069L52.8222 29.0572C52.1517 30.057 51.2522 30.8824 50.1986 31.4649C49.145 32.0473 47.9677 32.37 46.7643 32.4061C43.6354 32.4061 41.3462 30.5867 41.3462 27.4078C41.3462 24.2289 44.5251 20.2103 52.6523 20.0403V17.8011C52.6523 14.8021 51.0828 13.1827 48.8436 13.1827C48.3738 15.052 46.7643 16.7015 45.1549 16.7015C43.9753 16.7015 42.9956 15.8917 42.6158 13.8624C44.5651 12.123 47.4441 11.7432 49.9832 11.7432C54.0918 11.7432 57.9805 13.6925 57.9805 18.4309V26.3481C57.9805 29.4771 58.1104 30.2468 59.21 30.2468C59.745 30.2238 60.2737 30.1228 60.7795 29.9469V31.7663C59.3473 32.1021 57.8893 32.3161 56.421 32.4061ZM52.6123 22.0796C48.9736 22.1996 46.2145 24.2389 46.2145 27.0279C46.2145 28.6374 47.1542 29.737 48.5037 29.737C50.1532 29.737 51.8926 27.7876 52.6123 26.9879V22.0796Z" fill="#F53B36"/>
<path id="Vector_3" d="M62.1289 31.8966V29.9973H64.628V17.8414C64.628 14.1227 64.1582 14.1227 63.3585 14.1227H61.9189V12.0435L69.5763 11.7036L69.9562 16.232L72.0754 13.9528C73.6449 12.2534 75.3343 11.4537 78.7232 11.7036C79.1279 12.3997 79.3481 13.1877 79.3629 13.9928C79.3906 14.3093 79.3499 14.628 79.2438 14.9274C79.1376 15.2268 78.9684 15.5 78.7476 15.7284C78.5268 15.9568 78.2595 16.1351 77.9638 16.2513C77.6682 16.3675 77.351 16.4189 77.0337 16.4019C75.891 16.2775 74.8289 15.7536 74.0348 14.9225L69.9262 19.3709V29.9973H72.6353V31.8966H62.1289Z" fill="#F53B36"/>
<path id="Vector_4" d="M96.8371 31.8964L90.0694 23.1794L88.33 24.8688V29.9971H90.6892V31.8964H80.4927V29.9971H83.0318V6.37519C83.0318 2.64647 82.522 2.64648 81.7123 2.64648H80.3228V0.577199L88.32 0.237305V20.8902L95.5575 14.1225L91.9187 13.7426V12.0432H101.685V14.1225H99.6861L93.3383 19.9205L100.236 28.8075C100.436 29.1469 100.706 29.4395 101.028 29.6654C101.351 29.8913 101.718 30.0453 102.105 30.117C102.435 30.117 103.495 29.9471 103.495 29.9471V31.8964H96.8371Z" fill="#F53B36"/>
<path id="Vector_5" d="M108.983 22.12C108.983 27.0283 111.602 29.9973 115.08 29.9973C117.149 29.8665 119.102 28.9933 120.579 27.5382L121.808 28.9377C120.912 30.0569 119.769 30.9528 118.468 31.5548C117.167 32.1568 115.744 32.4483 114.311 32.4065C107.243 32.4065 103.694 27.2383 103.694 22.16C103.694 15.0924 108.893 11.7036 113.891 11.7036C118.509 11.7036 121.678 14.4127 121.678 18.2713C121.616 19.6098 121.276 20.9206 120.678 22.12H108.983ZM116.98 17.5516C116.98 15.3423 115.88 13.6129 113.981 13.6129C111.402 13.6129 109.672 16.5319 109.202 19.6609H116.68C116.884 18.9765 116.985 18.2656 116.98 17.5516Z" fill="#F53B36"/>
<path id="Vector_6" d="M133.484 32.4061C130.395 32.4061 127.346 30.8766 127.346 26.9879V14.1224H123.877V12.0431L127.646 11.7032L128.326 5.86523H132.674V12.0431H138.133V14.1224H132.674V26.818C132.674 29.0173 133.894 29.817 135.214 29.817C136.544 29.6599 137.828 29.2275 138.982 28.5474L139.822 30.4967C137.9 31.6483 135.722 32.3044 133.484 32.4061Z" fill="#F53B36"/>
<path id="Vector_7" d="M141.531 31.8961V29.9968H144.74V17.841C144.74 14.1222 144.24 14.1222 143.43 14.1222H141.311V12.043L150.038 11.7031V29.9968H153.247V31.8961H141.531ZM147.199 8.57416C146.376 8.59854 145.576 8.29733 144.973 7.73591C144.371 7.17448 144.014 6.39811 143.98 5.5752C144.001 4.73997 144.351 3.94681 144.954 3.36832C145.557 2.78983 146.364 2.47281 147.199 2.48625C147.611 2.47964 148.02 2.55438 148.403 2.70616C148.785 2.85794 149.134 3.08379 149.43 3.37076C149.725 3.65773 149.961 4.00018 150.124 4.37847C150.286 4.75675 150.373 5.16344 150.378 5.5752C150.352 6.39366 150.003 7.16851 149.407 7.73045C148.811 8.29238 148.018 8.59571 147.199 8.57416Z" fill="#F53B36"/>
<path id="Vector_8" d="M168.951 31.8966V29.9973H171.321V17.9314C171.321 15.3024 170.651 14.2028 169.321 14.2028C168.322 14.2028 166.912 15.6422 165.942 16.4919L163.273 18.9011V29.9973H165.663V31.8966H155.496V29.9973H157.995V17.8415C157.995 14.1228 157.525 14.1228 156.716 14.1228H155.286V12.0435L162.864 11.7036L163.283 15.6423L165.103 14.0328C167.342 12.1335 168.572 11.7036 170.821 11.7036C173.91 11.7036 176.619 13.573 176.619 16.9118V29.9973H179.118V31.8966H168.951Z" fill="#F53B36"/>
<path id="Vector_9" d="M190.914 41.763C184.227 41.763 180.628 38.964 180.628 36.175C180.628 34.3956 182.237 32.4463 185.626 31.6865C183.887 31.0467 183.047 29.8671 183.047 28.5976C183.099 27.7175 183.472 26.8869 184.094 26.2626C184.717 25.6382 185.546 25.2634 186.426 25.2087C185.136 24.678 184.029 23.7824 183.241 22.6318C182.452 21.4811 182.017 20.1255 181.987 18.731C181.987 15.0922 185.156 11.7334 190.984 11.7334C192.356 11.7487 193.713 12.0234 194.983 12.5431L201.421 12.0733V13.9426L198.542 14.5724C199.427 15.8487 199.873 17.3787 199.811 18.9309C199.811 22.6196 196.422 26.1684 190.964 26.1684C190.455 26.1684 190.155 26.1684 189.865 26.1684C188.595 26.1684 187.865 26.7182 187.865 27.5279C187.942 27.9661 188.163 28.3662 188.492 28.6649C188.822 28.9637 189.241 29.144 189.685 29.1774L196.652 30.247C201.101 30.9668 203 33.296 203 35.5352C202.98 38.5442 198.452 41.763 190.914 41.763ZM194.733 33.4259L189.225 32.5362C186.436 33.126 185.456 34.4356 185.456 35.8351C185.456 37.8344 187.955 39.6038 191.174 39.6038C194.393 39.6038 197.652 38.6041 197.652 35.8751C197.652 34.7355 196.592 33.7158 194.733 33.4259ZM191.044 13.6927C189.145 13.6927 187.196 15.5121 187.196 18.9909C187.196 22.4697 189.055 24.1091 191.044 24.1091C193.034 24.1091 194.813 22.5397 194.813 18.9909C194.813 15.4421 192.954 13.6927 191.044 13.6927Z" fill="#F53B36"/>
</g>
</svg>
