<svg width="126" height="35" viewBox="0 0 126 35" fill="none" xmlns="http://www.w3.org/2000/svg">
<g id="Group 373518">
<circle id="Ellipse 381" cx="122.474" cy="30.5033" r="3.52555" fill="black"/>
<path id="Vector" d="M18.0768 19.436V19.6159C20.5688 22.2012 22.8742 26.139 25.2329 29.9436C25.6394 30.6099 26.3656 31.576 27.1385 31.576H29.1375V33.8881H21.0419C18.7298 29.7637 15.2384 23.6004 12.4332 20.2955H9.89461V27.5449C9.89461 31.5427 10.4343 31.5427 11.3005 31.5427H14.1056V33.8548H0V31.5427H3.62469V9.14827C3.62469 5.15045 3.07832 5.11713 2.21879 5.11713H0V2.80505H14.4988C21.7881 2.80505 24.7798 6.88284 24.7798 11.0073C24.7798 15.3582 21.475 18.4832 18.0768 19.436ZM12.32 5.11713H9.92126V17.6236H12.2333C16.7176 17.6236 18.983 14.3588 18.983 11.0073C18.983 7.65575 17.4838 5.11713 12.32 5.11713Z" fill="#F53B36"/>
<path id="Vector_2" d="M34.7078 23.3935C34.7078 28.6506 37.5129 31.8222 41.2309 31.8222C43.2698 31.8222 45.4419 30.7361 47.121 29.157L48.4536 30.6562C47.497 31.8491 46.2776 32.8048 44.8906 33.4486C43.5036 34.0924 41.9866 34.4069 40.458 34.3675C32.8954 34.3675 29.0908 28.8438 29.0908 23.4068C29.0908 15.8376 34.6611 12.2129 40.0049 12.2129C44.9422 12.2129 48.3403 15.118 48.3403 19.2357C48.2855 20.668 47.9315 22.073 47.3009 23.3601L34.7078 23.3935ZM43.2698 18.5028C43.2698 16.1441 42.0904 14.2851 40.0515 14.2851C37.2864 14.2851 35.4274 17.4167 34.9343 20.7682H42.93C43.151 20.0424 43.2655 19.2882 43.2698 18.5294V18.5028Z" fill="#F53B36"/>
<path id="Vector_3" d="M70.2675 34.4277C68.8682 34.4277 67.0559 33.8413 66.6428 31.6692L66.3763 30.2166H66.283C64.6039 33.2083 62.3385 34.4277 59.6199 34.4277C54.1363 34.4277 51.2778 29.8102 51.2778 24.6863C51.2778 19.0694 54.9958 12.2731 61.4723 12.2731C63.0785 12.2527 64.6494 12.7452 65.9565 13.679V6.56951C65.9565 2.57169 65.4168 2.57169 64.5573 2.57169H62.7516V0.35956L71.6268 -0.000244141V27.9845C71.6268 31.316 71.7667 32.1089 72.9594 32.1089C73.53 32.0897 74.0943 31.9818 74.6318 31.7891V33.7414C73.1984 34.0902 71.7387 34.3197 70.2675 34.4277ZM65.9632 16.6707C64.9237 15.538 63.8377 14.8583 62.525 14.8583C58.947 14.8583 56.9081 20.0222 56.9081 24.733C56.9081 28.271 58.1741 31.6225 60.7993 31.6225C63.4246 31.6225 65.9632 28.4976 65.9632 24.1466V16.6707Z" fill="#F53B36"/>
<path id="Vector_4" d="M95.3687 34.4277C93.9695 34.4277 92.1571 33.8413 91.7507 31.6692L91.4775 30.2166H91.3842C89.7118 33.2083 87.4464 34.4277 84.7212 34.4277C79.2375 34.4277 76.3857 29.8102 76.3857 24.6863C76.3857 19.0694 80.0971 12.2731 86.5735 12.2731C88.1816 12.2545 89.754 12.7468 91.0644 13.679V6.56951C91.0644 2.57169 90.5181 2.57169 89.6585 2.57169H87.8462V0.35956L96.7213 -0.000244141V27.9845C96.7213 31.316 96.8612 32.1089 98.0539 32.1089C98.6246 32.0897 99.1889 31.9818 99.7264 31.7891V33.7414C98.2952 34.0898 96.8377 34.3193 95.3687 34.4277ZM91.0711 16.6707C90.025 15.538 88.9389 14.8583 87.6263 14.8583C84.0482 14.8583 82.0093 20.0222 82.0093 24.733C82.0093 28.271 83.2753 31.6225 85.9006 31.6225C88.5258 31.6225 91.0711 28.4976 91.0711 24.1466V16.6707Z" fill="#F53B36"/>
<path id="Vector_5" d="M101.804 33.8882V31.8493H105.249V18.8431C105.249 14.8453 104.703 14.8453 103.843 14.8453H101.578V12.6398L110.906 12.2733V31.8493H114.351V33.8882H101.804ZM107.874 8.92183C107.434 8.93603 106.995 8.86277 106.583 8.70629C106.172 8.5498 105.795 8.31321 105.475 8.0102C105.155 7.70718 104.899 7.34377 104.721 6.94098C104.542 6.53819 104.446 6.10402 104.436 5.66361C104.443 5.21909 104.537 4.78029 104.714 4.37228C104.891 3.96427 105.146 3.59504 105.465 3.28566C105.784 2.97629 106.161 2.73285 106.575 2.56923C106.988 2.40562 107.43 2.32503 107.874 2.33209C108.317 2.32322 108.758 2.40285 109.17 2.5663C109.582 2.72975 109.957 2.97374 110.273 3.28399C110.59 3.59424 110.841 3.96451 111.013 4.37311C111.184 4.78171 111.272 5.22044 111.272 5.66361C111.253 6.54607 110.884 7.38483 110.247 7.99572C109.61 8.60661 108.757 8.93969 107.874 8.92183Z" fill="#F53B36"/>
</g>
</svg>
