<svg width="69" height="21" viewBox="0 0 69 21" fill="none" xmlns="http://www.w3.org/2000/svg">
<g id="Group 373427">
<path id="Vector" d="M10.9077 11.7277V11.8363C12.4114 13.3963 13.8025 15.7724 15.2257 18.0681C15.471 18.4702 15.9092 19.0532 16.3756 19.0532H17.5818V20.4483H12.6968C11.3017 17.9596 9.19496 14.2406 7.50231 12.2464H5.97049V16.6207C5.97049 19.0331 6.29615 19.0331 6.81882 19.0331H8.51146V20.4282H0V19.0331H2.18717V5.52005C2.18717 3.10773 1.85749 3.08763 1.33884 3.08763H0V1.6925H8.74867C13.1471 1.6925 14.9524 4.15307 14.9524 6.64178C14.9524 9.26719 12.9582 11.1528 10.9077 11.7277ZM7.43396 3.08763H5.98657V10.6342H7.38169C10.0875 10.6342 11.4545 8.66411 11.4545 6.64178C11.4545 4.61945 10.5499 3.08763 7.43396 3.08763Z" fill="white"/>
<path id="Vector_2" d="M20.943 14.1161C20.943 17.2883 22.6357 19.2021 24.8791 19.2021C26.1094 19.2021 27.4201 18.5468 28.4333 17.5939L29.2374 18.4985C28.6602 19.2184 27.9243 19.795 27.0874 20.1835C26.2505 20.572 25.3351 20.7617 24.4127 20.738C19.8494 20.738 17.5537 17.4049 17.5537 14.1242C17.5537 9.55686 20.9149 7.36969 24.1393 7.36969C27.1185 7.36969 29.169 9.12264 29.169 11.6073C29.136 12.4716 28.9223 13.3193 28.5418 14.096L20.943 14.1161ZM26.1094 11.1651C26.1094 9.7418 25.3978 8.62008 24.1675 8.62008C22.499 8.62008 21.3772 10.5097 21.0797 12.532H25.9044C26.0378 12.0941 26.1068 11.639 26.1094 11.1812V11.1651Z" fill="white"/>
<path id="Vector_3" d="M42.4004 20.7741C41.5561 20.7741 40.4625 20.4203 40.2132 19.1096L40.0524 18.2331H39.9961C38.983 20.0383 37.616 20.7741 35.9756 20.7741C32.6667 20.7741 30.9419 17.9879 30.9419 14.8961C30.9419 11.5068 33.1853 7.40582 37.0933 7.40582C38.0625 7.39351 39.0104 7.69069 39.7991 8.25415V3.96424C39.7991 1.55193 39.4735 1.55193 38.9548 1.55193H37.8652V0.217109L43.2206 0V16.8862C43.2206 18.8965 43.305 19.3749 44.0247 19.3749C44.3691 19.3633 44.7095 19.2982 45.0338 19.182V20.36C44.169 20.5704 43.2881 20.7089 42.4004 20.7741ZM39.8031 10.0594C39.1759 9.37588 38.5206 8.96579 37.7286 8.96579C35.5695 8.96579 34.3392 12.0817 34.3392 14.9242C34.3392 17.0591 35.1031 19.0814 36.6872 19.0814C38.2713 19.0814 39.8031 17.1958 39.8031 14.5704V10.0594Z" fill="white"/>
<path id="Vector_4" d="M57.5463 20.7741C56.702 20.7741 55.6084 20.4203 55.3631 19.1096L55.1983 18.2331H55.142C54.1329 20.0383 52.7659 20.7741 51.1215 20.7741C47.8126 20.7741 46.0918 17.9879 46.0918 14.8961C46.0918 11.5068 48.3312 7.40582 52.2392 7.40582C53.2095 7.39461 54.1583 7.69165 54.949 8.25415V3.96424C54.949 1.55193 54.6193 1.55193 54.1007 1.55193H53.0071V0.217109L58.3625 0V16.8862C58.3625 18.8965 58.4469 19.3749 59.1666 19.3749C59.5109 19.3633 59.8514 19.2982 60.1757 19.182V20.36C59.3121 20.5702 58.4327 20.7087 57.5463 20.7741ZM54.953 10.0594C54.3218 9.37588 53.6665 8.96579 52.8744 8.96579C50.7154 8.96579 49.4851 12.0817 49.4851 14.9242C49.4851 17.0591 50.249 19.0814 51.8331 19.0814C53.4172 19.0814 54.953 17.1958 54.953 14.5704V10.0594Z" fill="white"/>
<path id="Vector_5" d="M61.4297 20.4484V19.2181H63.5083V11.37C63.5083 8.9577 63.1786 8.9577 62.6599 8.9577H61.293V7.6269L66.9217 7.40577V19.2181H69.0003V20.4484H61.4297ZM65.0924 5.38345C64.8267 5.39201 64.562 5.34781 64.3135 5.25338C64.065 5.15896 63.8377 5.0162 63.6448 4.83336C63.4519 4.65052 63.2971 4.43123 63.1895 4.18818C63.0818 3.94513 63.0235 3.68316 63.0178 3.41741C63.022 3.14918 63.079 2.88441 63.1855 2.63821C63.292 2.39201 63.446 2.16921 63.6387 1.98254C63.8313 1.79586 64.0589 1.64896 64.3083 1.55024C64.5577 1.45151 64.8242 1.40288 65.0924 1.40714C65.3597 1.40179 65.6255 1.44984 65.874 1.54847C66.1226 1.64709 66.349 1.79432 66.5399 1.98153C66.7309 2.16873 66.8825 2.39216 66.9861 2.63871C67.0896 2.88526 67.1429 3.15 67.1428 3.41741C67.1312 3.94989 66.9088 4.45601 66.5243 4.82463C66.1399 5.19324 65.6249 5.39422 65.0924 5.38345Z" fill="white"/>
</g>
</svg>
