<svg width="100" height="31" viewBox="0 0 100 31" fill="none" xmlns="http://www.w3.org/2000/svg">
<path d="M15.7008 17.5803V17.7366C17.8652 19.982 19.8676 23.4023 21.9163 26.7068C22.2693 27.2855 22.9001 28.1247 23.5714 28.1247H25.3076V30.1329H18.2761C16.2679 26.5506 13.2354 21.1974 10.799 18.3269H8.59406V24.6234C8.59406 28.0958 9.06283 28.0958 9.81517 28.0958H12.2516V30.1039H0V28.0958H3.14826V8.64483C3.14826 5.17249 2.67371 5.14355 1.92715 5.14355H0V3.13538H12.593C18.9243 3.13538 21.5228 6.67717 21.5228 10.2595C21.5228 14.0385 18.6523 16.7528 15.7008 17.5803ZM10.7006 5.14355H8.6172V16.0062H10.6254C14.5202 16.0062 16.4879 13.1705 16.4879 10.2595C16.4879 7.34849 15.1857 5.14355 10.7006 5.14355Z" fill="#F53B36"/>
<path d="M30.1458 21.0175C30.1458 25.5836 32.5822 28.3384 35.8115 28.3384C37.5824 28.3384 39.4691 27.3951 40.9275 26.0235L42.0849 27.3256C41.254 28.3617 40.1949 29.1918 38.9902 29.751C37.7855 30.3102 36.4679 30.5833 35.1402 30.5491C28.5717 30.5491 25.2672 25.7515 25.2672 21.0291C25.2672 14.4548 30.1053 11.3065 34.7467 11.3065C39.035 11.3065 41.9865 13.8298 41.9865 17.4063C41.9389 18.6503 41.6314 19.8706 41.0837 20.9886L30.1458 21.0175ZM37.5824 16.7697C37.5824 14.721 36.5581 13.1064 34.7872 13.1064C32.3855 13.1064 30.7709 15.8264 30.3426 18.7373H37.2873C37.4793 18.1069 37.5787 17.4519 37.5824 16.7928V16.7697Z" fill="#F53B36"/>
<path d="M61.0316 30.6014C59.8163 30.6014 58.2422 30.0921 57.8834 28.2055L57.6519 26.9439H57.5709C56.1125 29.5423 54.1448 30.6014 51.7836 30.6014C47.0207 30.6014 44.538 26.5909 44.538 22.1405C44.538 17.2618 47.7673 11.3588 53.3925 11.3588C54.7876 11.3411 56.152 11.7689 57.2873 12.5799V6.40495C57.2873 2.93261 56.8185 2.93261 56.072 2.93261H54.5036V1.01124L62.2123 0.69873V25.0051C62.2123 27.8988 62.3338 28.5875 63.3697 28.5875C63.8654 28.5708 64.3554 28.4771 64.8223 28.3097V30.0053C63.5773 30.3083 62.3095 30.5076 61.0316 30.6014ZM57.2931 15.1784C56.3903 14.1946 55.447 13.6043 54.3069 13.6043C51.1991 13.6043 49.4282 18.0894 49.4282 22.181C49.4282 25.254 50.5278 28.165 52.808 28.165C55.0882 28.165 57.2931 25.4508 57.2931 21.6717V15.1784Z" fill="#F53B36"/>
<path d="M82.8332 30.6014C81.6178 30.6014 80.0437 30.0921 79.6907 28.2055L79.4534 26.9439H79.3724C77.9198 29.5423 75.9521 30.6014 73.5852 30.6014C68.8223 30.6014 66.3453 26.5909 66.3453 22.1405C66.3453 17.2618 69.5688 11.3588 75.194 11.3588C76.5907 11.3427 77.9564 11.7703 79.0946 12.5799V6.40495C79.0946 2.93261 78.6201 2.93261 77.8735 2.93261H76.2994V1.01124L84.008 0.69873V25.0051C84.008 27.8988 84.1295 28.5875 85.1654 28.5875C85.6611 28.5708 86.1512 28.4771 86.618 28.3097V30.0053C85.375 30.308 84.109 30.5073 82.8332 30.6014ZM79.1004 15.1784C78.1918 14.1946 77.2485 13.6043 76.1084 13.6043C73.0006 13.6043 71.2297 18.0894 71.2297 22.181C71.2297 25.254 72.3293 28.165 74.6095 28.165C76.8897 28.165 79.1004 25.4508 79.1004 21.6717V15.1784Z" fill="#F53B36"/>
<path d="M88.4227 30.1325V28.3616H91.4147V17.0649C91.4147 13.5925 90.9402 13.5925 90.1936 13.5925H88.226V11.677L96.3281 11.3587V28.3616H99.3201V30.1325H88.4227ZM93.6949 8.44767C93.3125 8.46 92.9314 8.39637 92.5738 8.26046C92.2161 8.12455 91.8889 7.91905 91.6112 7.65586C91.3335 7.39268 91.1107 7.07703 90.9558 6.72718C90.8009 6.37734 90.7169 6.00024 90.7087 5.61771C90.7147 5.23162 90.7968 4.8505 90.9501 4.49612C91.1034 4.14174 91.3251 3.82103 91.6024 3.55233C91.8797 3.28362 92.2072 3.07217 92.5663 2.93006C92.9253 2.78795 93.3088 2.71796 93.6949 2.72409C94.0797 2.71639 94.4622 2.78555 94.82 2.92752C95.1778 3.06948 95.5037 3.28141 95.7785 3.55088C96.0534 3.82034 96.2717 4.14194 96.4207 4.49684C96.5697 4.85174 96.6465 5.2328 96.6464 5.61771C96.6297 6.38418 96.3095 7.1127 95.7561 7.64329C95.2027 8.17389 94.4614 8.46319 93.6949 8.44767Z" fill="#F53B36"/>
</svg>
