<svg width="48" height="11" viewBox="0 0 48 11" fill="none" xmlns="http://www.w3.org/2000/svg">
<path d="M0.05 11V0.499999H4.85C5.81 0.499999 6.635 0.654999 7.325 0.965C8.025 1.275 8.565 1.725 8.945 2.315C9.325 2.895 9.515 3.585 9.515 4.385C9.515 5.175 9.325 5.86 8.945 6.44C8.565 7.01 8.025 7.45 7.325 7.76C6.635 8.06 5.81 8.21 4.85 8.21H1.7L3.02 6.965V11H0.05ZM6.545 11L3.935 7.175H7.1L9.725 11H6.545ZM3.02 7.28L1.7 5.915H4.67C5.29 5.915 5.75 5.78 6.05 5.51C6.36 5.24 6.515 4.865 6.515 4.385C6.515 3.895 6.36 3.515 6.05 3.245C5.75 2.975 5.29 2.84 4.67 2.84H1.7L3.02 1.475V7.28ZM13.4335 4.565H18.3085V6.785H13.4335V4.565ZM13.6435 8.705H19.1335V11H10.7035V0.499999H18.9385V2.795H13.6435V8.705ZM20.3316 11V0.499999H25.2966C26.4566 0.499999 27.4766 0.714999 28.3566 1.145C29.2366 1.575 29.9216 2.18 30.4116 2.96C30.9116 3.74 31.1616 4.67 31.1616 5.75C31.1616 6.82 30.9116 7.75 30.4116 8.54C29.9216 9.32 29.2366 9.925 28.3566 10.355C27.4766 10.785 26.4566 11 25.2966 11H20.3316ZM23.3016 8.63H25.1766C25.7766 8.63 26.2966 8.52 26.7366 8.3C27.1866 8.07 27.5366 7.74 27.7866 7.31C28.0366 6.87 28.1616 6.35 28.1616 5.75C28.1616 5.14 28.0366 4.62 27.7866 4.19C27.5366 3.76 27.1866 3.435 26.7366 3.215C26.2966 2.985 25.7766 2.87 25.1766 2.87H23.3016V8.63ZM32.2742 11V0.499999H37.2392C38.3992 0.499999 39.4192 0.714999 40.2992 1.145C41.1792 1.575 41.8642 2.18 42.3542 2.96C42.8542 3.74 43.1042 4.67 43.1042 5.75C43.1042 6.82 42.8542 7.75 42.3542 8.54C41.8642 9.32 41.1792 9.925 40.2992 10.355C39.4192 10.785 38.3992 11 37.2392 11H32.2742ZM35.2442 8.63H37.1192C37.7192 8.63 38.2392 8.52 38.6792 8.3C39.1292 8.07 39.4792 7.74 39.7292 7.31C39.9792 6.87 40.1042 6.35 40.1042 5.75C40.1042 5.14 39.9792 4.62 39.7292 4.19C39.4792 3.76 39.1292 3.435 38.6792 3.215C38.2392 2.985 37.7192 2.87 37.1192 2.87H35.2442V8.63ZM44.2168 11V0.499999H47.1868V11H44.2168Z" fill="white"/>
</svg>
