<svg width="126" height="35" viewBox="0 0 126 35" fill="none" xmlns="http://www.w3.org/2000/svg">
<circle cx="122.474" cy="30.5036" r="3.52555" fill="black"/>
<path d="M18.0768 19.4361V19.616C20.5688 22.2013 22.8742 26.1391 25.2329 29.9437C25.6394 30.61 26.3656 31.5762 27.1385 31.5762H29.1375V33.8882H21.0419C18.7298 29.7638 15.2384 23.6005 12.4332 20.2956H9.89461V27.545C9.89461 31.5429 10.4343 31.5429 11.3005 31.5429H14.1056V33.8549H0V31.5429H3.62469V9.14839C3.62469 5.15057 3.07832 5.11725 2.21879 5.11725H0V2.80518H14.4988C21.7881 2.80518 24.7798 6.88296 24.7798 11.0074C24.7798 15.3583 21.475 18.4833 18.0768 19.4361ZM12.32 5.11725H9.92126V17.6238H12.2333C16.7176 17.6238 18.983 14.3589 18.983 11.0074C18.983 7.65587 17.4838 5.11725 12.32 5.11725Z" fill="#F53B36"/>
<path d="M34.7078 23.3935C34.7078 28.6506 37.5129 31.8222 41.2309 31.8222C43.2698 31.8222 45.4419 30.7361 47.121 29.157L48.4536 30.6562C47.497 31.8491 46.2776 32.8048 44.8906 33.4486C43.5036 34.0924 41.9866 34.4069 40.458 34.3675C32.8954 34.3675 29.0908 28.8438 29.0908 23.4068C29.0908 15.8376 34.6611 12.2129 40.0049 12.2129C44.9422 12.2129 48.3403 15.118 48.3403 19.2357C48.2855 20.668 47.9315 22.073 47.3009 23.3601L34.7078 23.3935ZM43.2698 18.5028C43.2698 16.1441 42.0904 14.2851 40.0515 14.2851C37.2864 14.2851 35.4274 17.4167 34.9343 20.7682H42.93C43.151 20.0424 43.2655 19.2882 43.2698 18.5294V18.5028Z" fill="#F53B36"/>
<path d="M70.2675 34.4279C68.8682 34.4279 67.0559 33.8416 66.6428 31.6694L66.3763 30.2169H66.283C64.6039 33.2086 62.3385 34.4279 59.6199 34.4279C54.1363 34.4279 51.2778 29.8104 51.2778 24.6866C51.2778 19.0696 54.9958 12.2733 61.4723 12.2733C63.0785 12.2529 64.6494 12.7454 65.9565 13.6792V6.56975C65.9565 2.57193 65.4168 2.57193 64.5573 2.57193H62.7516V0.359805L71.6268 0V27.9848C71.6268 31.3163 71.7667 32.1092 72.9594 32.1092C73.53 32.09 74.0943 31.9821 74.6318 31.7893V33.7416C73.1984 34.0904 71.7387 34.32 70.2675 34.4279ZM65.9632 16.6709C64.9237 15.5382 63.8377 14.8586 62.525 14.8586C58.947 14.8586 56.9081 20.0224 56.9081 24.7332C56.9081 28.2713 58.1741 31.6228 60.7993 31.6228C63.4246 31.6228 65.9632 28.4978 65.9632 24.1468V16.6709Z" fill="#F53B36"/>
<path d="M95.3687 34.4279C93.9695 34.4279 92.1571 33.8416 91.7507 31.6694L91.4775 30.2169H91.3842C89.7118 33.2086 87.4464 34.4279 84.7212 34.4279C79.2375 34.4279 76.3857 29.8104 76.3857 24.6866C76.3857 19.0696 80.0971 12.2733 86.5735 12.2733C88.1816 12.2547 89.754 12.747 91.0644 13.6792V6.56975C91.0644 2.57193 90.5181 2.57193 89.6585 2.57193H87.8462V0.359805L96.7213 0V27.9848C96.7213 31.3163 96.8612 32.1092 98.0539 32.1092C98.6246 32.09 99.1889 31.9821 99.7264 31.7893V33.7416C98.2952 34.09 96.8377 34.3196 95.3687 34.4279ZM91.0711 16.6709C90.025 15.5382 88.9389 14.8586 87.6263 14.8586C84.0482 14.8586 82.0093 20.0224 82.0093 24.7332C82.0093 28.2713 83.2753 31.6228 85.9006 31.6228C88.5258 31.6228 91.0711 28.4978 91.0711 24.1468V16.6709Z" fill="#F53B36"/>
<path d="M101.804 33.8884V31.8495H105.249V18.8432C105.249 14.8454 104.703 14.8454 103.843 14.8454H101.578V12.6399L110.906 12.2735V31.8495H114.351V33.8884H101.804ZM107.874 8.92195C107.434 8.93615 106.995 8.86289 106.583 8.70641C106.172 8.54993 105.795 8.31333 105.475 8.01032C105.155 7.70731 104.899 7.34389 104.721 6.9411C104.542 6.53831 104.446 6.10414 104.436 5.66373C104.443 5.21921 104.537 4.78042 104.714 4.3724C104.891 3.96439 105.146 3.59516 105.465 3.28579C105.784 2.97642 106.161 2.73297 106.575 2.56935C106.988 2.40574 107.43 2.32515 107.874 2.33221C108.317 2.32335 108.758 2.40297 109.17 2.56642C109.582 2.72987 109.957 2.97387 110.273 3.28411C110.59 3.59436 110.841 3.96463 111.013 4.37323C111.184 4.78184 111.272 5.22056 111.272 5.66373C111.253 6.54619 110.884 7.38496 110.247 7.99585C109.61 8.60674 108.757 8.93982 107.874 8.92195Z" fill="#F53B36"/>
</svg>
