<svg width="69" height="20" viewBox="0 0 69 20" fill="none" xmlns="http://www.w3.org/2000/svg">
<g id="Group 373438">
<circle id="Ellipse 381" cx="67.0691" cy="17.1631" r="1.93066" fill="#F53B36"/>
<g id="Group 373436">
<path id="Vector" d="M9.89921 11.1025V11.2011C11.2639 12.6168 12.5263 14.7732 13.818 16.8567C14.0406 17.2216 14.4383 17.7507 14.8616 17.7507H15.9562V19.0168H11.5229C10.2568 16.7582 8.34482 13.383 6.80867 11.5732H5.41848V15.5431C5.41848 17.7324 5.71403 17.7324 6.18838 17.7324H7.72452V18.9985H0V17.7324H1.98495V5.46878C1.98495 3.2795 1.68575 3.26125 1.21505 3.26125H0V1.99512H7.9398C11.9316 1.99512 13.5699 4.22819 13.5699 6.4868C13.5699 8.86947 11.7601 10.5808 9.89921 11.1025ZM6.74664 3.26125H5.43307V10.1101H6.69921C9.15485 10.1101 10.3954 8.32215 10.3954 6.4868C10.3954 4.65145 9.57447 3.26125 6.74664 3.26125Z" fill="white"/>
<path id="Vector_2" d="M19.0068 13.2702C19.0068 16.1491 20.543 17.8859 22.579 17.8859C23.6956 17.8859 24.8851 17.2911 25.8046 16.4264L26.5343 17.2474C26.0105 17.9006 25.3427 18.424 24.5832 18.7765C23.8236 19.1291 22.9929 19.3013 22.1558 19.2797C18.0144 19.2797 15.9309 16.2549 15.9309 13.2775C15.9309 9.13241 18.9813 7.14746 21.9076 7.14746C24.6114 7.14746 26.4723 8.73834 26.4723 10.9933C26.4423 11.7776 26.2484 12.547 25.9031 13.2519L19.0068 13.2702ZM23.6956 10.5919C23.6956 9.30026 23.0497 8.28224 21.9332 8.28224C20.4189 8.28224 19.4009 9.99718 19.1309 11.8325H23.5095C23.6305 11.435 23.6932 11.022 23.6956 10.6065V10.5919Z" fill="white"/>
<path id="Vector_3" d="M38.4797 19.3124C37.7134 19.3124 36.7209 18.9913 36.4947 17.8018L36.3488 17.0063H36.2977C35.3782 18.6446 34.1376 19.3124 32.6489 19.3124C29.6459 19.3124 28.0806 16.7837 28.0806 13.9778C28.0806 10.9019 30.1166 7.18008 33.6632 7.18008C34.5428 7.16891 35.4031 7.43862 36.1189 7.94998V4.05671C36.1189 1.86742 35.8233 1.86742 35.3526 1.86742H34.3638V0.65602L39.224 0.458984V15.784C39.224 17.6084 39.3006 18.0426 39.9538 18.0426C40.2663 18.0321 40.5753 17.973 40.8696 17.8674V18.9365C40.0847 19.1275 39.2853 19.2532 38.4797 19.3124ZM36.1225 9.5883C35.5533 8.968 34.9586 8.59582 34.2398 8.59582C32.2803 8.59582 31.1638 11.4236 31.1638 14.0034C31.1638 15.9409 31.8571 17.7762 33.2947 17.7762C34.7323 17.7762 36.1225 16.0649 36.1225 13.6823V9.5883Z" fill="white"/>
<path id="Vector_4" d="M52.2255 19.3124C51.4593 19.3124 50.4668 18.9913 50.2442 17.8018L50.0946 17.0063H50.0435C49.1277 18.6446 47.8871 19.3124 46.3947 19.3124C43.3918 19.3124 41.8301 16.7837 41.8301 13.9778C41.8301 10.9019 43.8625 7.18008 47.4091 7.18008C48.2897 7.16991 49.1508 7.43949 49.8684 7.94998V4.05671C49.8684 1.86742 49.5692 1.86742 49.0985 1.86742H48.106V0.65602L52.9662 0.458984V15.784C52.9662 17.6084 53.0429 18.0426 53.696 18.0426C54.0085 18.0321 54.3175 17.973 54.6118 17.8674V18.9365C53.8281 19.1273 53.03 19.253 52.2255 19.3124ZM49.872 9.5883C49.2992 8.968 48.7044 8.59582 47.9856 8.59582C46.0262 8.59582 44.9097 11.4236 44.9097 14.0034C44.9097 15.9409 45.6029 17.7762 47.0406 17.7762C48.4782 17.7762 49.872 16.0649 49.872 13.6823V9.5883Z" fill="white"/>
<path id="Vector_5" d="M55.7503 19.0169V17.9004H57.6367V10.7779C57.6367 8.58866 57.3375 8.58866 56.8668 8.58866H55.6262V7.38091L60.7345 7.18022V17.9004H62.621V19.0169H55.7503ZM59.0743 5.34487C58.8332 5.35265 58.593 5.31253 58.3675 5.22684C58.142 5.14114 57.9357 5.01158 57.7606 4.84565C57.5855 4.67971 57.4451 4.4807 57.3474 4.26012C57.2497 4.03954 57.1967 3.80179 57.1916 3.56061C57.1954 3.31718 57.2471 3.07689 57.3438 2.85345C57.4405 2.63002 57.5802 2.42782 57.755 2.2584C57.9299 2.08898 58.1364 1.95567 58.3627 1.86607C58.5891 1.77647 58.8309 1.73234 59.0743 1.7362C59.317 1.73135 59.5581 1.77495 59.7837 1.86446C60.0093 1.95397 60.2147 2.08759 60.388 2.25749C60.5613 2.42738 60.699 2.63015 60.793 2.85391C60.8869 3.07767 60.9353 3.31792 60.9352 3.56061C60.9247 4.04386 60.7228 4.50319 60.3739 4.83772C60.025 5.17226 59.5576 5.35466 59.0743 5.34487Z" fill="white"/>
</g>
</g>
</svg>
