<svg width="34" height="34" viewBox="0 0 34 34" fill="none" xmlns="http://www.w3.org/2000/svg">
<rect width="33.6094" height="33.6094" rx="16.8047" fill="#F53B36"/>
<path d="M19.9504 17.4584V17.569C21.4826 19.1586 22.9001 21.5797 24.3503 23.919C24.6002 24.3287 25.0468 24.9227 25.522 24.9227H26.751V26.3443H21.7735C20.3519 23.8084 18.2052 20.0189 16.4805 17.9869H14.9196V22.4441C14.9196 24.9022 15.2515 24.9022 15.784 24.9022H17.5088V26.3238H8.83594V24.9022H11.0646V11.133C11.0646 8.67497 10.7286 8.65448 10.2002 8.65448H8.83594V7.23291H17.7505C22.2323 7.23291 24.0718 9.74012 24.0718 12.276C24.0718 14.9512 22.0398 16.8726 19.9504 17.4584ZM16.4108 8.65448H14.936V16.3441H16.3576C19.1147 16.3441 20.5076 14.3367 20.5076 12.276C20.5076 10.2153 19.5858 8.65448 16.4108 8.65448Z" fill="#231F20"/>
</svg>
