<svg width="5" height="9" viewBox="0 0 5 9" fill="none" xmlns="http://www.w3.org/2000/svg">
<path id="back" d="M0.989226 8.82751C0.876592 8.93912 0.739471 9 0.582762 9C0.254652 9 0 8.73619 0 8.40135C0 8.23393 0.063663 8.08174 0.176298 7.96505L3.60431 4.49493L0.176298 1.03495C0.063663 0.918264 0 0.760992 0 0.598647C0 0.263811 0.254652 0 0.582762 0C0.739471 0 0.876592 0.0608794 0.984329 0.172492L4.79432 4.02818C4.93144 4.16009 5 4.32243 5 4.5C5 4.67756 4.93144 4.82976 4.79922 4.96674L0.989226 8.82751Z" fill="#CCCCCC"/>
</svg>
