<svg width="181" height="142" viewBox="0 0 181 142" fill="none" xmlns="http://www.w3.org/2000/svg">
<g id="Layer_1" clip-path="url(#clip0_738_4779)">
<path id="Vector" d="M1.30056 106.782C1.13456 106.817 0.954718 106.862 0.79563 106.886C0.652051 106.913 0.503419 106.895 0.371069 106.833C0.238719 106.771 0.129464 106.668 0.0589899 106.54C-0.110473 106.218 0.117781 105.997 0.332203 105.8C1.20027 104.998 2.33809 104.845 3.41711 104.61C5.4396 104.221 7.43559 103.704 9.39327 103.064C12.7687 101.854 16.2444 101.204 19.7236 100.564C21.4052 100.218 23.1151 100.027 24.8317 99.9932C26.6854 99.9932 28.4423 99.3258 30.2787 99.1701C31.3127 99.066 32.3524 99.0279 33.3913 99.056C34.1391 99.0348 34.8762 98.8716 35.5632 98.5753C35.8556 98.4563 36.1674 98.3919 36.4831 98.3851C38.5339 98.437 40.5433 98.0185 42.5768 97.8698C43.3861 97.811 44.1573 97.7868 44.9044 98.2156C45.43 98.513 46.1528 97.9493 46.1079 97.2507C46.0353 96.106 45.8692 94.9647 45.762 93.82C45.4715 90.4999 45.1499 87.1833 44.7556 83.8735C44.5724 81.8088 43.6747 79.8727 42.2172 78.3989C40.2009 76.348 38.9317 73.7888 37.8319 71.1742C35.6047 65.8725 33.9273 60.377 32.3468 54.8539C31.33 51.2917 30.7456 47.6431 30.1646 43.9806C29.6562 40.7539 29.1824 37.5583 29.3691 34.2971C29.5941 30.7404 30.249 27.2241 31.3197 23.825C32.378 20.3446 33.8625 17.0084 35.7395 13.8924C38.3161 9.64197 41.4044 5.8377 45.603 3.06751C48.2132 1.35727 51.2894 0.498199 54.4081 0.608567C59.6891 0.705403 64.4064 2.45882 68.8297 5.26706C73.2709 8.14509 77.5358 11.2863 81.6017 14.674C85.1217 17.5262 88.1581 20.9281 90.5936 24.7484C90.8979 25.2325 91.2541 25.6821 91.5896 26.1317C91.6657 26.2389 91.7591 26.3358 91.9354 26.5329C92.7067 24.6308 93.8307 23.0745 94.9166 21.4594C95.3005 20.8957 95.2279 20.4876 94.5085 20.2005C93.2635 19.706 92.9211 18.4713 92.6548 17.3785C91.7798 13.7471 95.1898 10.3406 98.835 11.1533C99.6409 11.3625 100.377 11.7813 100.969 12.3672C101.111 12.4952 101.173 12.7303 101.495 12.675C101.785 11.3954 101.785 10.0362 102.269 8.77045C102.993 6.95343 104.216 5.37807 105.797 4.22608C105.966 4.09466 106.105 3.9667 106.319 4.1327C106.665 4.38862 106.665 4.25375 106.751 3.90099C106.942 3.2093 107.671 3.07788 108.232 2.90842C111.998 1.75676 115.778 1.54234 119.568 2.85308C121.802 3.66998 123.845 4.93252 125.576 6.56397C126.188 7.11386 126.748 7.63954 127.045 8.49377C127.191 8.91224 127.913 9.15433 128.135 9.74917C128.277 10.1331 128.162 10.8213 128.965 10.7037C129.048 10.7037 129.276 11.1256 129.293 11.3643C129.425 12.9413 130.331 14.3247 130.403 15.9052C130.423 17.0539 130.508 18.2005 130.659 19.3394C130.682 19.593 130.638 19.8481 130.531 20.0795C130.341 20.6363 130.096 21.117 130.466 21.8087C130.933 22.6871 130.393 23.7177 130.348 24.6861C130.3 25.202 130.201 25.7118 130.051 26.2078C129.975 26.5087 129.874 26.9237 129.535 26.9375C128.996 26.9617 129.013 27.1969 129.01 27.6292C129.01 28.1964 128.508 28.608 128.104 28.8431C127.856 28.9816 127.643 29.1753 127.483 29.4092C127.322 29.6432 127.217 29.911 127.177 30.1919C127.145 30.3898 127.065 30.5769 126.944 30.7371C126.824 30.8974 126.666 31.026 126.485 31.1118C125.205 31.7974 123.981 32.5838 122.826 33.4636C122.425 33.7783 121.854 33.6054 121.463 33.9408C121.315 33.6711 121.491 33.5742 121.591 33.4428C121.692 33.3114 121.875 33.097 121.716 32.9068C121.557 32.7166 121.37 32.9829 121.194 33.0036C119.711 33.1742 118.215 33.1892 116.729 33.0486C116.342 33.0071 116.037 32.6647 115.74 32.388C115.301 31.9903 114.768 31.7897 114.277 32.2635C113.34 33.1696 112.157 33.7091 111.123 34.4665C110.891 34.6325 110.556 34.8124 110.583 35.089C110.618 35.4349 111.029 35.3657 111.275 35.4349C114.605 36.175 117.925 36.9739 121.18 37.9907C125.118 39.1786 128.943 40.7144 132.61 42.58C136.831 44.8023 140.928 47.2545 144.88 49.9257C148.777 52.536 152.454 55.46 155.875 58.6686C158.157 60.8059 160.54 62.836 162.446 65.3226C165.904 69.8185 169.342 74.3145 171.624 79.5471C171.97 80.3114 172.216 81.1033 172.503 81.8849C172.703 82.4279 172.703 82.7703 171.925 82.7911C170.794 82.8187 169.601 82.7253 168.647 83.5692C168.618 83.5942 168.584 83.6125 168.548 83.6227C168.511 83.6328 168.473 83.6347 168.436 83.628C166.731 82.708 164.829 83.1092 163.03 82.9156C159.438 82.5051 155.962 81.3873 152.804 79.6266C151.864 79.1393 150.979 78.5526 150.165 77.8766C149.877 77.6376 149.603 77.3836 149.342 77.1158C147.737 75.3866 147.734 74.349 149.262 72.5576C149.843 71.8659 150.597 71.3679 150.967 70.4445C151.099 70.1228 151.929 69.777 152.472 69.49C153.855 68.7706 155.193 68.034 156.508 67.2316C157.106 66.865 157.459 66.1664 158.32 66.1491C158.714 66.1491 158.825 65.6477 158.763 65.243C158.754 65.0405 158.67 64.8484 158.528 64.7045C158.385 64.5605 158.194 64.4751 157.991 64.4649C157.006 64.3542 156.21 64.8349 155.418 65.2811C153.194 66.5226 150.922 67.7192 149.024 69.4312C147.72 70.5932 146.499 71.814 145.825 73.4948C145.043 75.4454 145.638 77.0674 146.81 78.6098C147.762 79.8754 149.038 80.8601 150.504 81.4596C151.368 81.8054 152.005 82.549 152.866 82.9778C155.799 84.4407 158.908 85.25 162.11 85.8102C163.84 86.1146 165.607 86.0558 167.353 86.1008C168.833 86.1423 168.999 85.8794 168.391 84.4442C168.782 84.5133 169.082 84.8108 169.532 84.4961C169.805 84.3128 170.525 84.6621 170.812 85.1566C171.019 85.5025 171.158 85.5612 171.652 85.5025C172.458 85.3987 173.35 85.0909 174.166 85.6339C174.395 85.7895 174.592 85.9036 174.623 86.201C174.841 88.366 175.66 90.4653 175.584 92.651C175.422 96.6386 175.754 100.65 175.027 104.61C174.661 106.613 174.253 108.615 172.859 110.223C171.251 112.084 169.778 111.952 168.481 109.877C168.353 109.673 168.349 109.293 168.014 109.345C167.73 109.386 167.744 109.739 167.633 109.96C166.423 112.361 165.327 114.826 163.255 116.666C162.494 117.358 161.681 117.884 160.627 117.406C159.516 116.905 159.088 115.923 158.984 114.781C158.981 114.186 158.915 113.592 158.787 113.011C158.233 113.979 157.725 114.979 157.113 115.909C155.086 119.021 153.004 122.082 150.155 124.524C149.968 124.686 149.733 124.797 149.539 124.953C147.488 126.637 145.921 125.485 145.458 123.179C144.995 120.872 145.755 118.804 146.295 116.663C146.419 116.172 146.724 115.715 146.561 115.02C145.461 115.65 144.376 116.196 143.362 116.857C140.519 118.717 137.728 120.661 134.875 122.504C131.545 124.662 128.066 126.575 124.59 128.491C120.256 130.88 115.965 133.332 111.686 135.829C109.2 137.278 107.004 139.108 104.652 140.73C104.231 141.059 103.723 141.256 103.19 141.296C102.658 141.336 102.126 141.217 101.661 140.955C100.063 140.116 98.3263 139.573 96.5351 139.354C95.8677 139.267 95.0964 139.322 94.6503 138.61C94.6326 138.589 94.6103 138.572 94.585 138.562C94.5598 138.551 94.5324 138.546 94.505 138.548C93.1355 138.745 91.8939 137.956 90.5106 137.908C89.5318 137.88 88.5566 137.69 87.5813 137.562C87.4429 137.562 87.2562 137.562 87.1732 137.465C86.9362 137.201 86.6203 137.021 86.2726 136.951C85.9248 136.882 85.5639 136.926 85.2434 137.078C85.1174 137.11 84.9847 137.105 84.8617 137.062C84.7387 137.02 84.631 136.942 84.5517 136.839C84.237 136.518 83.6836 136.604 83.4692 136.462C82.736 135.982 81.8195 136.442 81.1521 135.826C80.8062 135.48 80.3774 135.269 79.7687 135.688C79.077 136.175 78.8522 135.314 78.6516 134.903C78.4822 134.557 78.579 134.387 78.0014 134.453C77.4239 134.519 76.708 134.29 76.0198 134.415C75.712 134.467 75.8987 133.986 75.7742 133.775C75.6497 133.564 75.6013 133.201 75.2174 133.215C74.8335 133.229 74.8716 133.561 74.8716 133.785C74.8301 134.242 74.6364 134.173 74.3909 133.938C74.2179 133.786 74.103 133.58 74.0658 133.353C73.9793 132.814 73.7372 132.661 73.2461 133.038C72.8622 133.332 72.5302 133.412 72.1118 132.893C71.8558 132.575 71.299 132.489 71.0742 132.001C71.0228 131.944 70.9578 131.9 70.8851 131.875C70.8124 131.849 70.7345 131.843 70.6586 131.855C70.5826 131.868 70.5112 131.9 70.4508 131.948C70.3905 131.996 70.3432 132.058 70.3134 132.129C70.1578 132.416 69.0787 131.852 68.93 131.416C68.847 131.178 68.8781 130.607 68.4424 131.23C68.4182 131.264 68.0965 131.188 68.0758 131.116C67.9132 130.541 67.557 130.663 67.1939 130.905C67.0867 130.58 67.2803 130.403 67.3322 130.192C67.3841 129.981 67.4221 129.846 67.263 129.711C67.104 129.577 66.9414 129.75 66.7962 129.746C66.2809 129.729 65.7898 129.532 65.2503 129.67C64.9571 129.752 64.6447 129.73 64.3657 129.608C64.0866 129.487 63.858 129.273 63.7182 129.002C63.3723 128.484 62.9711 127.993 62.2138 128.425C61.9855 128.556 61.5809 128.515 61.5636 128.228C61.5255 127.46 60.9514 127.685 60.5987 127.699C59.8228 127.73 59.0467 127.646 58.2954 127.45C57.9495 127.36 57.0987 127.474 57.5276 126.585C57.6002 126.433 57.4377 126.308 57.3097 126.263C57.1817 126.218 57.0469 126.326 57.0227 126.485C56.9466 127.059 56.784 126.571 56.7218 126.485C56.5696 126.301 56.3759 126.049 56.1753 126.139C55.584 126.374 55.1171 126.087 54.6467 125.848C54.0208 125.527 53.3291 125.523 52.672 125.364C51.1883 125.018 50.0297 123.946 48.6325 123.383C48.4804 123.32 48.4112 123.061 48.2867 122.853C47.9408 123.293 47.595 124.06 47.1143 122.961C47.0244 122.757 46.7096 122.808 46.4779 122.791C45.4165 122.75 44.3673 122.549 43.3654 122.196C43.0602 122.122 42.7747 121.983 42.5284 121.788C41.8367 120.993 40.82 120.972 39.9104 120.706C39.7444 120.657 39.4815 120.706 39.4193 120.592C38.8729 119.748 37.8077 119.9 37.116 119.357C37.0216 119.29 36.9148 119.243 36.8019 119.219C36.689 119.195 36.5723 119.193 36.4589 119.215C36.3482 119.215 36.2099 119.353 36.1476 119.315C34.8749 118.624 33.3083 118.904 32.0632 118.081C31.4148 117.686 30.6635 117.493 29.9052 117.527C29.3899 117.527 28.5218 117.559 28.7535 116.462C27.588 117.199 26.5125 116.777 25.5441 116.307C24.6264 115.844 23.6115 115.607 22.5837 115.615C22.384 115.629 22.1868 115.564 22.0338 115.435C21.5392 114.781 20.8579 114.532 20.1213 114.252C19.7656 114.119 19.3788 114.091 19.0077 114.173C18.4025 114.252 17.6935 114.283 17.3027 113.619C17.2162 113.474 17.154 113.353 17.0225 113.429C16.0127 114.007 15.0962 113.28 14.1382 113.197C13.881 113.133 13.6105 113.145 13.3601 113.232C13.2669 113.288 13.1624 113.323 13.0542 113.334C12.946 113.345 12.8367 113.331 12.7342 113.295C12.6317 113.259 12.5386 113.2 12.4614 113.123C12.3842 113.047 12.325 112.954 12.288 112.852C11.9421 112.215 11.8799 112.222 11.3162 112.686C11.2504 112.741 11.2539 112.34 10.9945 112.374C10.8043 112.395 10.6487 112.527 10.4204 112.416C9.84001 112.157 9.19435 112.082 8.57017 112.201C7.76436 112.295 6.91358 112.229 6.40865 111.468C6.09048 110.988 5.67892 111.354 5.3227 111.209C4.78319 110.994 4.28518 110.465 3.59349 110.804C3.07819 109.909 1.71557 110.113 1.31786 108.989C1.0481 108.224 1.23485 107.605 1.50461 106.914C1.53228 106.848 1.60144 106.741 1.58069 106.72C1.45965 106.633 1.36627 106.665 1.30056 106.782ZM68.0308 61.131C67.557 61.1517 67.6227 60.7644 67.5121 60.4842C67.4014 60.2041 67.3841 59.592 67.0417 59.6819C66.6993 59.7718 66.1875 59.8237 66.0042 60.2906C65.9459 60.4522 65.8631 60.6038 65.7586 60.7402C65.594 60.9261 65.3728 61.0528 65.1292 61.1009C64.8855 61.149 64.6328 61.1158 64.4099 61.0065C64.0018 60.8335 64.064 60.7298 63.9603 60.7575C63.151 60.9857 62.9227 61.4491 63.4 62.1754C63.5061 62.3464 63.5843 62.5332 63.6317 62.7287C63.7285 63.168 63.9118 63.168 64.2923 62.9812C65.3298 62.4659 66.3915 62.0647 67.5847 62.3794C67.9063 62.4624 68.0204 62.1581 68.2141 62.0094C68.3317 62.0959 68.5115 62.1962 68.598 62.0855C69.1294 61.4643 69.5749 60.7745 69.9226 60.0346C70.054 59.7199 70.1059 59.3637 69.6839 59.1562C69.5322 59.0741 69.356 59.0495 69.1876 59.087C69.0192 59.1245 68.87 59.2215 68.7675 59.3602C68.3077 59.8366 68.0446 60.469 68.0308 61.131ZM125.565 71.4405L125.524 71.2434L125.427 71.3126L125.576 71.4301C125.06 72.2705 123.954 71.7068 123.359 72.3605C123.123 72.063 123.134 72.3328 123.12 72.4711C123.037 73.3807 123.649 73.8822 124.548 73.7542C125.389 73.6331 126.094 73.1663 126.907 72.9657C128.214 72.644 129.535 72.3985 130.857 72.1564C131.227 72.0872 131.79 71.8106 131.659 71.5927C131.379 71.1396 131.714 70.8353 131.714 70.4099C131.189 70.4618 130.625 70.6554 130.362 69.9638C130.3 69.8012 130.085 69.9119 129.919 70.0087C129.12 70.4791 128.436 71.3126 127.322 70.8491C127.254 70.8476 127.186 70.8636 127.125 70.8957C127.065 70.9278 127.013 70.9749 126.976 71.0324C126.693 71.8209 126.105 71.5062 125.572 71.4232L125.565 71.4405ZM68.6879 64.2885C67.9962 65.0009 67.142 65.1496 66.2082 65.1911C65.2745 65.2326 64.8249 65.6926 64.9252 66.3359C65.0427 67.1763 65.5373 67.4253 66.5229 67.1763C67.5086 66.9273 68.5461 66.7129 68.7329 65.4471C68.7329 65.4125 68.8297 65.3917 68.8781 65.3641C69.7842 65.6615 71.7486 65.0009 72.1256 64.1709C72.3347 63.6608 72.7235 63.2449 73.2185 63.002C74.0485 62.5973 74.4877 61.8192 75.0341 61.1586C75.38 60.7574 75.2728 59.17 74.9338 58.9279C74.2421 58.4368 73.6888 58.9729 73.1355 59.2738C71.0777 60.4393 70.3756 62.8048 68.6879 64.2885ZM92.551 91.0774C93.0836 90.493 94.1419 90.3339 94.0347 89.2237C94.0411 89.1503 94.0665 89.0799 94.1083 89.0193C94.1502 88.9586 94.207 88.9099 94.2733 88.8779C95.2555 88.5666 95.3835 87.581 95.8953 86.8962C96.3622 86.2737 96.4106 85.2811 97.4067 85.1013C98.0638 83.7179 99.3814 82.9156 100.353 81.8158C101.014 81.0688 101.93 80.7783 102.587 80.0866C104.13 78.4576 105.966 77.2126 107.875 76.0679C108.154 75.9235 108.406 75.7316 108.619 75.5007C109.207 74.722 110.001 74.1231 110.912 73.7715C112.544 73.2078 113.779 71.9766 115.435 71.4474C116.684 71.0659 117.906 70.6038 119.094 70.0641C119.008 70.0078 118.925 69.9466 118.845 69.8808C118.351 69.3931 117.891 70.0433 117.462 69.943C116.079 69.6214 114.865 70.0537 113.658 70.5967C111.067 71.7518 108.705 73.2942 106.395 74.9093C101.845 78.1022 97.8418 82.01 94.5396 86.4812C93.5298 87.8369 92.8485 89.3966 91.7729 90.6901C91.1479 90.7306 90.5217 90.6314 89.9399 90.3996C89.3001 90.154 88.643 89.9465 87.9963 89.7079C85.1089 88.7029 82.3285 87.4135 79.6961 85.8587C78.3715 85.0667 77.0884 84.1779 75.6255 83.666C74.6665 83.3657 73.7433 82.961 72.8726 82.459C69.7981 80.5396 66.5748 78.8381 63.9775 76.2339C63.7355 75.9918 63.3827 75.6494 63.0092 75.888C62.6357 76.1267 62.9054 76.5175 62.9366 76.8529C63.0576 78.2363 63.2444 79.6646 62.653 81.003C62.1757 82.0924 61.4737 82.3034 60.4638 81.6774C59.2542 80.9058 58.2501 79.8519 57.538 78.6064C57.1091 77.887 56.9085 77.012 56.1892 76.4448C56.0275 76.8317 55.9577 77.2508 55.9851 77.6691C55.9931 78.562 55.8029 79.4455 55.4283 80.256C55.3297 80.4789 55.186 80.679 55.0065 80.8438C54.8269 81.0086 54.6152 81.1345 54.3847 81.2137C54.1542 81.2929 53.9098 81.3237 53.6669 81.3041C53.424 81.2845 53.1877 81.215 52.9729 81.0999C51.9554 80.5648 51.0921 79.7777 50.4655 78.8139C49.6451 77.5749 48.8968 76.2897 48.2244 74.9646C48.1622 75.1998 48.1276 75.3105 48.1138 75.3969C47.8959 77.0189 47.7472 78.6548 47.4221 80.2595C47.1821 81.2362 47.1073 82.2462 47.2007 83.2476C47.6573 86.4604 48.0377 89.6802 48.3974 92.9035C48.9645 98.0081 49.4798 103.12 50.424 108.176C50.5658 108.937 50.839 109.767 51.5826 109.981C52.8138 110.327 53.7164 111.171 54.7954 111.742C56.4071 112.592 58.0602 113.367 59.6614 114.256C62.608 115.895 65.6376 117.368 68.4804 119.212C72.468 121.792 76.5455 124.223 80.6748 126.575C84.1955 128.581 87.8165 130.379 91.5066 132.056C95.3524 133.785 99.2016 135.487 103.037 137.216C103.277 137.34 103.547 137.397 103.817 137.382C104.086 137.367 104.347 137.28 104.573 137.13C105.264 136.715 105.769 136.075 106.385 135.563C108.46 133.834 110.763 132.43 113.018 130.956C116.297 128.812 119.665 126.806 123.141 124.998C126.44 123.268 129.767 121.588 132.945 119.644C137.165 117.064 141.356 114.456 145.565 111.842C145.878 111.632 146.246 111.519 146.623 111.517C147.049 111.517 147.291 111.842 147.536 112.208C147.682 111.935 147.792 111.766 147.882 111.586C149.047 108.632 150.061 105.622 150.922 102.566C151.127 101.719 151.024 100.827 150.632 100.049C150.262 99.2116 149.864 98.3816 149.532 97.5308C148.322 94.4183 146.558 91.6066 145.074 88.6462C144.268 87.0449 142.947 85.7307 142.508 83.9393C142.463 83.756 142.204 83.7145 142.162 83.5934C141.927 83.0643 141.059 82.9571 141.242 82.1236C141.261 82.0389 141.261 81.9509 141.24 81.8664C141.22 81.782 141.181 81.7033 141.125 81.6365C141.07 81.5696 141 81.5164 140.921 81.4809C140.841 81.4455 140.755 81.4287 140.668 81.4319C140.183 81.4271 139.707 81.2998 139.285 81.0618C139.093 80.9617 138.879 80.9144 138.663 80.9247C138.448 80.9351 138.239 81.0028 138.058 81.1208C137.877 81.2389 137.731 81.403 137.635 81.5963C137.539 81.7896 137.496 82.005 137.511 82.2204C137.511 82.549 137.472 82.708 137.127 82.8533C136.283 83.1991 135.48 83.6591 134.65 84.0395C130.5 85.9451 126.43 88.0409 122.318 90.0364C119.226 91.5374 116.048 92.8032 112.855 94.0275C111.016 94.7399 109.228 95.5872 107.322 96.189C106.886 96.3273 106.506 96.8011 106.219 97.2058C105.977 97.5516 106.533 97.6726 106.623 97.9701C106.685 98.1001 106.711 98.2441 106.699 98.3875C106.686 98.5308 106.637 98.6684 106.554 98.7863C106.084 99.3085 106.177 99.7754 106.616 100.221C106.684 100.293 106.735 100.378 106.768 100.471C106.801 100.564 106.814 100.663 106.807 100.761C106.838 101.422 106.931 102.082 106.91 102.739C106.89 103.459 107.139 104.251 106.464 104.849C106.432 104.879 106.406 104.915 106.389 104.956C106.371 104.996 106.362 105.04 106.362 105.084C106.362 105.128 106.371 105.172 106.389 105.212C106.406 105.253 106.432 105.289 106.464 105.319C106.907 105.717 106.81 106.232 106.724 106.703C106.618 107.443 106.563 108.189 106.558 108.937C106.533 109.355 106.731 109.843 106.053 110.023C105.804 110.092 105.759 110.662 105.928 110.79C106.921 111.558 106.274 112.361 105.984 113.094C105.687 113.708 105.609 114.404 105.762 115.069C105.831 115.405 105.831 115.752 105.762 116.089C105.506 117.991 105.226 119.893 105.51 121.826C105.583 122.107 105.566 122.403 105.461 122.674C105.361 122.871 105.295 123.123 105.015 123.151C104.735 123.178 104.611 122.971 104.49 122.77C104.219 122.293 104.073 121.756 104.064 121.207C103.978 119.858 103.812 118.523 103.604 117.192C103.144 114.259 103.161 111.313 103.089 108.335C102.995 104.659 102.854 100.993 103.573 97.3545C103.853 95.9365 103.445 95.3313 102.11 94.7572C99.3973 93.6109 96.6019 92.671 93.7477 91.9455C93.2531 91.8175 92.6859 91.7103 92.551 91.0774ZM115.799 27.2765C116.698 25.9519 117.462 24.776 118.271 23.6313C118.866 22.7874 118.866 22.3171 118.095 21.6254C116.913 20.6342 115.656 19.7358 114.336 18.9382C111.796 17.3538 109.674 15.182 108.149 12.6058C107.457 11.4023 106.9 11.2951 105.921 12.298C105.147 13.0935 104.407 13.9235 103.666 14.7501C100.239 18.5543 96.8948 22.4312 94.1523 26.7784C93.7027 27.4874 93.0318 28.1791 93.1424 29.0818C93.2289 29.808 92.8969 30.1677 92.4507 30.6138C91.3632 31.6154 90.6813 32.9815 90.5348 34.4527C90.2131 39.4328 90.9117 44.2469 93.3015 48.7187C94.7125 51.3747 96.587 53.5224 99.6546 54.3213C101.654 54.8435 103.521 54.726 104.911 53.0244C106.5 51.1254 107.607 48.8713 108.138 46.4534C108.546 44.3029 108.588 42.0988 108.263 39.9343C108.107 38.7342 107.958 37.5134 108.311 36.341C108.453 35.8672 108.28 35.7946 107.868 35.8188C106.892 35.8694 105.914 35.7644 104.97 35.5075C104.088 35.2793 103.781 35.5075 104.043 36.3617C104.552 38.0183 104.905 39.7164 105.53 41.3453C106.022 42.6215 106.675 43.8423 106.997 45.1842C107.076 45.5058 107.249 45.9416 106.855 46.1179C106.461 46.2943 106.246 45.8378 106.087 45.5784C105.634 44.8556 105.257 44.0879 104.846 43.3374C103.639 41.1447 102.67 38.8691 102.425 36.341C102.34 34.8475 101.887 33.398 101.107 32.1217C100.582 31.3683 100.21 30.5186 100.014 29.6213C99.8103 28.5561 99.4713 27.4805 100.014 26.4153C100.087 26.2701 100.208 26.0695 100.36 26.0487C100.616 25.9865 100.668 26.277 100.737 26.4361C100.936 27.0325 101.065 27.6499 101.121 28.2759C101.311 29.3377 101.574 30.351 102.712 30.8421C102.864 30.9132 102.987 31.0356 103.058 31.1879C103.635 32.6647 104.908 32.9171 106.264 33.0486C108.643 33.2561 110.521 32.1286 112.271 30.728C113.025 30.1227 113.896 29.6593 114.522 28.8881C114.823 28.518 115.024 28.2794 114.36 28.0373C113.585 27.7537 113.367 27.0482 113.45 26.277C113.513 25.7133 113.841 25.4504 114.412 25.6994C115.065 25.983 115.674 26.3254 115.799 27.2765ZM43.6662 76.5348C43.7804 76.0471 43.8634 75.6598 43.9602 75.2759C44.057 74.892 44.1158 74.5531 44.5689 74.5842C45.0219 74.6153 45.2052 74.9612 45.3228 75.3105C45.4351 75.7252 45.5263 76.1454 45.596 76.5694C45.6272 76.6973 45.5649 76.8841 45.7551 76.9152C45.9453 76.9463 46.0353 76.7907 46.101 76.6281C46.2496 76.2515 46.3077 75.8451 46.2704 75.4419C46.1943 73.3669 46.1044 71.2918 46.0318 69.2444C46.0318 68.8329 46.0733 68.3902 46.5125 68.2242C46.9517 68.0582 47.0832 68.5285 47.3633 68.7014C47.4767 68.7885 47.5709 68.8979 47.64 69.0231C48.4807 70.3501 49.1918 71.7549 49.7634 73.2181C50.3204 74.6596 51.1231 75.9936 52.1359 77.1607C52.4645 77.5273 52.7896 78.0703 53.4017 77.8524C54.0138 77.6345 54.0035 77.012 54.0588 76.4691C54.0588 76.2996 54.0588 76.1232 54.0761 75.9537C54.1245 74.4182 53.7302 72.938 53.4812 71.4405C53.33 70.8824 53.3181 70.2958 53.4467 69.732C53.5469 69.4173 53.7648 68.8363 54.1868 69.1891C54.8058 69.6975 55.6497 70.0502 55.8537 70.9667C56.3114 72.8272 57.1112 74.5864 58.2124 76.1543C58.9455 77.2541 59.6441 78.43 61.0621 78.8761C61.0621 77.7763 61.0621 76.725 61.0621 75.6771C61.0621 74.7329 60.7751 73.7784 61.1244 72.855C61.5947 71.6203 62.5942 71.2468 63.4415 72.0111C64.0813 72.5887 64.7661 73.1179 65.4301 73.6712C65.2567 73.011 65.0084 72.3728 64.69 71.7691C63.6732 69.7148 62.9608 67.5394 62.0789 65.4229C60.4984 61.5702 58.5098 57.887 57.2786 53.8856C57.04 53.1109 56.6284 52.4261 55.6566 52.3362C54.5118 52.229 53.374 52.056 52.2327 51.9177C47.6538 51.3747 43.1302 50.4894 38.5616 49.7182C37.0946 49.4557 35.6486 49.087 34.2351 48.6149C33.246 48.2967 32.8102 48.736 33.0627 49.6767C33.2391 50.3407 33.4086 51.0082 33.6091 51.6653C34.7343 55.3312 35.8652 58.9971 37.0019 62.663C38.184 66.4578 39.6523 70.1573 41.3941 73.73C41.8898 74.8495 42.6739 75.8174 43.6662 76.5348ZM54.8266 24.5236C54.3528 24.3403 54.3528 24.3403 53.6265 25.0942C53.0628 25.6856 53.0904 26.0522 53.7337 26.4499C54.3182 26.7957 54.5464 27.6534 54.0277 27.8851C53.1804 28.2656 52.7446 29.0783 51.9526 29.4622C49.8395 30.472 47.7368 31.5096 45.5995 32.471C42.6537 33.8048 39.5962 34.8764 36.4623 35.6735C35.2139 35.9882 33.9169 36.0954 32.6892 36.5174C32.2673 36.6626 32.0425 36.8355 32.4609 37.209C32.7978 37.5246 33.2349 37.7118 33.6958 37.7377C34.1567 37.7636 34.612 37.6267 34.9821 37.3508C35.106 37.2383 35.2597 37.1639 35.4248 37.1364C36.573 37.0085 37.7005 36.6488 38.8832 36.8943C39.0564 36.8988 39.2274 36.8557 39.3778 36.7698C40.362 36.354 41.3833 36.0321 42.4281 35.8084C42.9718 35.7329 43.4663 35.4535 43.8115 35.0268C44.1919 34.4873 44.4409 33.9166 45.2952 34.3351C45.5649 34.4596 45.9142 34.1034 46.2047 33.9166C46.6128 33.6538 47.0417 33.2007 47.4532 33.2077C48.4907 33.2319 49.0648 32.3188 49.9813 32.1701C51.0603 32.0041 51.8869 31.2018 52.9383 30.977C53.1645 30.9464 53.3751 30.8443 53.5393 30.6857C53.7035 30.527 53.8128 30.3201 53.8513 30.0951C53.9066 31.8243 54.415 33.4463 54.543 35.1167C54.6536 36.5312 54.7643 37.9076 55.411 39.1976C55.6612 39.8092 55.9548 40.4021 56.2895 40.9718C56.452 41.2035 56.6353 41.4767 56.5454 41.7638C56.3829 42.2376 56.6042 42.5696 56.7944 42.9639C57.3201 44.0463 57.4169 45.2845 58.0014 46.3531C58.0498 46.443 58.0809 46.6263 58.0256 46.699C57.4065 47.3906 58.0464 48.0028 58.1847 48.6426C58.2297 48.857 58.3334 49.0818 58.5305 49.0714C59.6614 49.0334 59.8932 50.0225 60.1975 50.7038C60.6125 51.6307 60.1975 52.2947 59.2188 52.6198C58.738 52.7823 58.8314 52.9898 59.0147 53.3115C59.4297 54.0619 59.8378 54.8159 60.2079 55.5871C60.5537 56.2788 60.7923 57.012 61.1244 57.7037C61.4564 58.3953 61.8402 58.7412 62.6876 58.3642C63.6418 57.9802 64.6262 57.6759 65.6307 57.4547C66.6682 57.2056 66.9449 56.9013 66.8342 55.8638C66.7512 55.0372 66.6544 54.2106 66.5368 53.3875C66.1287 50.4894 65.6203 47.6016 65.3229 44.6931C64.8664 40.2386 64.5447 35.7669 63.7043 31.3574C63.3792 29.6282 63.0127 27.9197 62.0201 26.4361C61.0275 24.9524 61.0102 24.9939 62.1065 23.7385C61.909 23.6486 61.6885 23.6216 61.4751 23.6612C61.2617 23.7007 61.0656 23.805 60.9134 23.9598C60.3185 24.4855 59.7341 24.4198 59.1012 24.0567C58.1467 23.5137 57.1714 23.1056 56.0128 23.2128C54.747 23.32 54.7436 23.2647 54.8266 24.5236ZM161.457 113.509C162.339 112.928 163.069 112.142 163.584 111.219C165.192 108.629 166.146 105.741 167.281 102.936C167.516 102.359 167.626 101.536 168.512 101.605C169.397 101.674 169.473 102.487 169.76 103.092C169.796 103.231 169.817 103.374 169.823 103.517C170.008 104.653 170.015 105.81 169.843 106.948C169.809 107.294 169.56 107.795 170.044 108.013C170.625 108.276 170.815 107.685 171.123 107.384C171.213 107.272 171.29 107.15 171.351 107.021C172.582 105.046 173.063 102.843 173.243 100.571C173.392 98.6825 173.43 96.7665 173.499 94.8886C173.589 92.3951 173.738 89.8981 173.001 87.4565C172.942 87.2697 173.001 87.0034 172.755 86.955C172.51 86.9066 172.472 87.1902 172.382 87.3423C170.926 89.6739 169.145 91.7863 167.094 93.6159C165.462 95.1238 163.525 96.1786 161.744 97.4617C159.41 99.1712 156.874 100.586 154.194 101.674C153.719 101.843 153.3 102.139 152.982 102.53C152.664 102.921 152.46 103.392 152.392 103.891C152.183 105.077 151.91 106.251 151.576 107.408C151.144 108.874 150.611 110.33 150.193 111.79C149.598 113.931 148.882 116.037 148.301 118.181C147.955 119.461 147.609 120.758 147.72 122.144C148.086 122.093 148.433 121.945 148.723 121.716C149.502 121.04 150.21 120.287 150.836 119.468C153.762 115.94 155.75 111.835 157.898 107.833C158.399 106.903 158.721 105.879 159.402 105.049C159.966 104.358 160.786 104.261 161.232 104.866C161.612 105.339 161.87 105.899 161.982 106.495C162.195 107.977 162.14 109.484 161.82 110.946C161.661 111.748 161.408 112.547 161.457 113.509ZM56.4278 18.9382C54.9649 19.9031 53.3809 20.7746 52.0356 21.9228C51.5134 22.369 51.2506 22.8324 50.4344 22.9085C49.1305 23.0295 48.3593 24.3333 46.9759 24.6031C45.513 24.8936 44.1573 25.6994 42.7186 26.1628C41.062 26.692 39.4124 27.3387 37.6071 27.1762C37.3269 27.152 36.9776 27.107 37.1506 26.7784C37.4549 26.2724 37.802 25.7934 38.1881 25.3467C38.5097 24.9351 38.6861 25.319 38.9109 25.4781C38.9455 25.5023 39.0665 25.4331 39.1288 25.3847C40.3012 24.4751 41.5013 23.5932 42.6391 22.6353C43.5726 21.8219 44.6015 21.1251 45.7032 20.5602C46.3949 20.2144 47.0866 19.9031 47.806 19.6057C47.9962 19.5296 48.259 19.5054 48.1172 19.2322C47.8993 18.7999 48.2417 18.914 48.425 18.8863C48.6083 18.8587 48.93 18.9486 48.9715 18.748C49.1444 17.9491 49.7496 18.1704 50.2649 18.1047C50.8328 18.0821 51.3874 17.9257 51.8834 17.6482C52.7684 17.0714 53.7065 16.5804 54.6848 16.1818C57.1575 15.2031 59.6787 14.3523 62.1446 13.3598C62.8847 13.0589 63.6767 13.2629 64.3269 13.0139C65.2641 12.6404 66.3085 12.803 67.2008 12.3015C67.353 12.215 67.6435 12.343 67.8614 12.4018C68.6415 12.601 69.361 12.9881 69.9572 13.5292C70.1232 13.6779 70.303 13.7644 70.4932 13.6399C70.5728 13.5915 70.6834 13.5742 70.6004 13.3944C70.3514 12.841 70.2096 12.2358 69.4661 12.0802C68.7795 11.9647 68.1546 11.6138 67.6988 11.0876C67.2907 10.5688 66.8065 10.5688 66.2221 10.5446C64.8387 10.4824 63.4207 10.1988 62.2656 11.3262C61.1174 11.1325 60.1422 11.7551 59.153 12.132C52.2362 14.8089 45.6479 18.1635 39.651 22.5903C37.9257 23.8762 36.4092 25.4207 35.1551 27.1693C34.6086 27.9197 34.785 28.5526 35.7015 28.7982C37.0606 29.144 38.4336 30.0121 39.8516 28.9745C39.8891 28.9577 39.9298 28.9489 39.9709 28.9489C40.0121 28.9489 40.0527 28.9577 40.0902 28.9745C40.5917 29.1821 41.0309 28.8777 41.4978 28.8293C42.3935 28.7359 42.9953 28.0408 43.8564 27.8436C44.4686 27.6984 45.392 27.9854 45.7032 27.0205C45.7032 26.9756 46.2462 26.3081 46.5229 27.0205C46.5817 27.1796 46.7615 27.1589 46.8964 27.0897C47.7437 26.6539 48.7397 26.4672 49.2412 25.4677C49.4794 25.013 49.8736 24.6593 50.3514 24.4717L50.4828 25.2464C50.7007 24.2607 51.6517 24.3714 52.2397 23.9944C52.5364 23.8155 52.7818 23.563 52.9521 23.2612C53.0731 23.0295 53.253 22.9154 53.5089 23.0779C54.0277 23.4238 54.2213 23.1298 54.3528 22.6802C54.415 22.4727 54.5776 22.1027 54.6606 22.1684C55.2485 22.6387 55.2727 22.0646 55.5044 21.7914C56.0197 21.1862 56.6526 20.6778 56.9915 19.9273C57.0296 19.8374 57.199 19.7129 57.2475 19.7336C58.0706 20.1244 57.9391 19.4328 57.9841 19.042C58.1397 17.4442 57.1645 16.7456 55.5978 17.1675C54.0311 17.5894 52.6443 18.4921 51.1572 19.1319C49.8914 19.6783 49.7738 19.9169 49.6804 20.5637C50.1473 20.4046 50.718 20.3147 51.043 19.9273C51.6898 19.1595 52.5544 19.0454 53.4397 18.8241C53.9585 18.6927 54.5464 18.9935 54.9614 18.5889C55.2139 18.3434 55.3419 18.3779 55.5978 18.5474C55.8636 18.6996 56.1412 18.8302 56.4278 18.9382ZM112.108 82.7876C112.651 82.3276 113.021 81.8711 113.599 81.5529C114.1 81.2728 114.854 81.2071 115.09 80.754C115.435 80.1108 115.913 80.0036 116.473 79.9724C117.203 79.9309 117.78 79.5713 118.375 79.2323C118.468 79.1892 118.544 79.1168 118.592 79.0263C118.641 78.9358 118.658 78.8321 118.641 78.7309C118.6 78.5407 118.399 78.5268 118.23 78.4749C117.761 78.3417 117.299 78.1835 116.846 78.0011C116.524 77.8469 116.166 77.7799 115.809 77.8066C115.453 77.8333 115.109 77.9528 114.813 78.1533C112.491 79.5149 110.28 81.0575 108.2 82.7668C106.585 84.1502 105.088 85.627 104.05 87.5187C103.013 89.4623 103.86 91.029 106.063 91.195C106.93 91.2921 107.803 91.0709 108.519 90.5725C109.023 90.199 109.459 89.8808 110.165 89.9534C110.441 89.983 110.72 89.9157 110.952 89.7631C111.185 89.6105 111.358 89.382 111.441 89.1165C111.467 89.0031 111.529 88.9013 111.618 88.8269C111.708 88.7525 111.819 88.7097 111.935 88.705C112.835 88.6773 113.274 87.8991 113.934 87.4876C114.46 87.1417 114.626 86.4328 115.318 86.3463C115.508 86.3221 115.615 86.1077 115.757 85.9728C116.449 85.3226 116.041 84.6413 115.937 83.922C115.771 82.8083 115.221 82.2861 114.107 82.4452C113.513 82.5386 112.893 82.6631 112.122 82.7945L112.108 82.7876ZM128.826 48.2864C129.081 48.0142 129.42 47.8362 129.788 47.7814C131.348 47.401 132.9 47.0344 134.467 46.6644C134.813 46.5848 135.204 46.526 135.135 46.0695C135.112 45.8735 135.021 45.6915 134.878 45.5552C134.736 45.4188 134.55 45.3365 134.353 45.3225C133.229 45.0839 132.295 45.5923 131.306 45.8931C129.812 46.3462 128.539 47.2385 127.156 47.9198C126.82 48.1171 126.44 48.2303 126.051 48.2495C125.661 48.2688 125.273 48.1936 124.918 48.0304C124.631 47.8887 124.479 47.6673 124.835 47.4771C125.759 46.9825 126.665 46.2874 127.654 46.1145C129.103 45.862 130.397 45.1115 131.866 44.987C132.174 44.9594 132.52 44.6412 132.195 44.4199C131.579 43.9772 131.05 43.3374 130.148 43.3823C127.962 43.4895 126.108 44.5478 124.178 45.4021C123.355 45.7426 122.638 46.298 122.103 47.0102C121.533 47.8091 121.501 48.57 122.055 49.023C122.726 49.5729 123.563 49.8219 124.355 50.1228C125.707 50.6346 127.153 50.4859 128.56 50.5482C129.48 50.5862 130.448 50.8283 131.303 50.2335C131.479 50.109 131.576 50.2542 131.666 50.3234C131.938 50.4853 132.253 50.5579 132.568 50.5309C133.661 50.6312 134.643 50.185 135.681 49.9637C136.504 49.7908 137.3 49.6179 137.919 48.9988C137.978 48.9172 138.059 48.854 138.153 48.8166C138.246 48.7793 138.349 48.7693 138.448 48.7878C138.641 48.8397 138.766 49.3792 139.025 48.9227C139.209 48.6046 139.001 48.314 138.762 48.0858C138.026 47.3941 137.144 47.3941 136.259 47.6569C133.879 48.3555 131.455 48.3763 128.84 48.2933L128.826 48.2864ZM163.137 75.0131C164.175 75.0995 165.237 75.1825 166.285 75.2724C166.707 75.3105 166.841 75.2137 166.672 74.7502C166.392 74.0671 165.944 73.4661 165.368 73.0037C164.887 72.5399 164.304 72.1945 163.666 71.9946C163.028 71.7947 162.352 71.7459 161.692 71.8521C161.208 71.9074 160.72 71.9316 160.232 71.9558C158.157 72.063 156.203 72.5195 154.664 74.0516C154.494 74.1973 154.359 74.3785 154.267 74.5826C154.175 74.7866 154.129 75.0083 154.132 75.2321C154.135 75.4559 154.188 75.6762 154.286 75.8775C154.384 76.0787 154.525 76.2559 154.699 76.3964C155.1 76.7634 155.55 77.0719 156.037 77.3129C158.363 78.4437 160.974 78.8555 163.535 78.4957C164.476 78.3781 164.773 78.0426 164.77 77.0916C164.766 75.9676 164.026 75.4696 163.137 75.0131ZM71.5722 58.2293C72.755 57.5376 73.6681 56.5001 74.792 55.6978C76.1146 54.6964 77.4871 53.7626 78.9041 52.8999C80.0004 52.2809 81.1348 51.7137 82.4801 51.89C82.8123 51.9059 83.1308 52.0275 83.389 52.2372C83.6472 52.4469 83.8317 52.7336 83.9154 53.0555C84.1029 53.7679 84.1661 54.5074 84.1021 55.2413C83.6352 59.2184 81.9475 62.7011 79.6062 65.907C78.7731 67.0338 77.8699 68.1069 76.9017 69.1199C76.7703 69.2582 76.331 69.5522 76.7322 69.7563C77.1334 69.9603 77.4239 70.7938 78.0602 70.1021C78.481 69.6696 78.8781 69.2147 79.2499 68.7395C80.2252 67.3942 81.1209 65.9727 82.1412 64.6793C82.66 64.0084 82.8329 63.2544 83.0577 62.5005C83.1545 62.1927 82.8156 61.9333 83.1026 61.546C84.0191 60.3079 84.3615 58.7792 84.7592 57.3474C85.2468 55.5836 85.0497 53.7611 84.8284 51.9558C84.7959 51.6157 84.6712 51.291 84.4676 51.0167C84.264 50.7425 83.9893 50.529 83.6733 50.3995C82.4352 49.7631 81.2074 49.9879 79.997 50.3995C77.8666 51.1292 76.0371 52.4157 74.1937 53.6642C73.1251 54.3836 72.0737 55.1237 71.3786 56.2615C70.929 56.9809 70.8806 57.6725 71.5722 58.2293ZM146.333 56.7768C147.402 56.884 147.716 56.4759 147.436 55.5664C147.184 54.7744 146.655 54.7121 146.022 54.9369C145.084 55.2828 144.178 55.7012 143.255 56.0367C140.879 56.8875 138.392 57.3267 135.93 57.8247C134.567 58.0979 133.367 58.8104 132.029 59.0974C131.301 59.2585 130.602 59.5278 129.954 59.8963C129.535 60.128 129.57 60.4393 130.006 60.5326C130.884 60.7159 131.801 60.9926 132.617 60.3286C132.688 60.2595 132.777 60.213 132.875 60.1952C132.972 60.1773 133.073 60.1889 133.163 60.2283C133.991 60.4765 134.873 60.4849 135.705 60.2525C138.7 59.6127 141.585 58.6167 144.528 57.759C144.829 57.6725 145.289 57.6587 145.385 57.2679C145.527 56.6558 145.932 56.7076 146.333 56.7768ZM127.785 82.8256C127.903 82.8106 128.018 82.7851 128.131 82.7496C130.784 81.7743 133.582 81.3662 136.297 80.6053C136.926 80.4324 137.58 80.3321 138.206 80.1142C138.614 79.9759 139.177 79.8894 139.198 79.4226C139.219 78.9557 138.645 79.0767 138.316 78.9418C137.988 78.807 138.009 78.7689 138.264 78.5303C138.641 78.1844 138.209 77.9908 138.081 77.7625C138.015 77.6484 137.804 77.4616 137.735 77.7625C137.549 78.4265 137.389 78.0253 137.237 77.7625C137.13 77.5861 137.051 77.3682 136.822 77.6795C136.594 77.9908 136.39 77.8178 136.193 77.6138C136.124 77.5412 136.131 77.3164 135.902 77.5031C135.501 77.849 134.654 77.4167 134.561 78.302C134.561 78.347 134.339 78.4265 134.249 78.3989C133.803 78.264 133.558 78.3504 133.52 78.8761C133.502 79.1424 133.198 79.1424 133.001 79.2496C131.673 79.9655 130.099 79.9413 128.781 80.6572C128.669 80.7273 128.536 80.7569 128.405 80.7412C128.273 80.7255 128.151 80.6653 128.059 80.5707C127.792 80.301 127.626 80.384 127.384 80.6261C127.131 80.8541 126.85 81.0493 126.547 81.2071C126.43 81.2763 126.288 81.2659 126.319 81.4803C126.367 81.8815 127.343 82.8222 127.785 82.8256ZM131.358 74.4597C130.988 74.7329 130.978 75.1237 130.535 75.2828C129.968 75.4834 129.075 74.8678 128.806 75.8984C127.92 75.8362 127.104 76.2028 126.257 76.3584C125.731 76.4552 125.06 76.3999 124.718 76.8218C124.375 77.2437 124.458 77.8593 124.749 78.3746C125.012 78.8277 125.468 78.6617 125.842 78.6167C126.18 78.5587 126.509 78.4528 126.817 78.302C127.82 77.8766 128.747 77.1434 129.961 77.6103C130.103 77.6622 130.341 77.5273 130.504 77.427C131.552 76.7792 132.757 76.4289 133.99 76.4137C134.841 76.3523 135.66 76.0672 136.366 75.5872C135.28 75.4142 135.301 73.8579 133.9 74.2487C133.36 74.3975 132.672 74.4459 132.281 74.7329C131.718 75.1445 131.579 74.8989 131.358 74.4597ZM98.42 13.5915C97.181 13.6269 95.9821 14.0382 94.9823 14.7708C94.0243 15.4832 93.6474 16.7317 94.173 17.4407C95.0722 18.6442 96.3518 18.9624 97.2545 18.0978C98.2159 17.1744 99.1013 16.1715 100.073 15.255C100.602 14.7535 100.419 14.2417 99.8034 13.8889C99.373 13.6782 98.8991 13.5716 98.42 13.5777V13.5915ZM82.0789 43.2094C82.6219 42.2168 82.6081 41.4802 81.9786 40.9407C81.3492 40.4012 80.5745 40.5568 79.8794 40.875C76.1823 42.5696 73.5124 45.4539 71.0569 48.57C70.7185 49.0386 70.5022 49.5842 70.4275 50.1574C70.3895 50.3822 70.3825 50.69 70.6592 50.7246C70.9359 50.7591 70.8909 50.4583 70.9013 50.2715C70.9117 50.0828 70.967 49.8993 71.0626 49.7362C71.1583 49.5732 71.2915 49.4354 71.4512 49.3343C73.2392 48.0892 74.5327 46.3255 76.1235 44.8729C77.3024 43.7197 78.6378 42.7382 80.0903 41.9575C81.7435 41.1378 81.9752 41.2969 82.0789 43.2094ZM39.1945 15.8637C40.6421 15.0747 42.0019 14.1345 43.2512 13.0589C43.6732 12.6923 44.0155 12.2358 44.6346 12.6715C44.6672 12.6885 44.7033 12.6974 44.7401 12.6974C44.7768 12.6974 44.813 12.6885 44.8456 12.6715C45.264 12.2116 45.8831 12.1113 46.3949 11.8277C47.3702 11.2847 48.1691 10.4893 49.2378 10.0777C50.6981 9.57435 52.0918 8.89495 53.3879 8.05455C53.8478 7.73292 54.6917 7.95772 54.7712 7.08965C54.7712 7.00665 54.9511 7.1104 55.0479 7.16574C55.4456 7.38708 55.7396 7.10694 56.0543 6.92711C56.165 6.86485 56.0854 6.71268 56.0163 6.62622C55.9041 6.49228 55.7557 6.3936 55.5888 6.34206C55.4219 6.29052 55.2437 6.28832 55.0756 6.33571C54.9078 6.36461 54.7441 6.41337 54.5879 6.48097C53.4812 7.01702 52.3884 7.59112 51.2713 8.09605C49.3899 8.94336 47.7022 10.14 45.8554 11.0357C45.4404 11.2398 45.0773 11.4196 45.098 11.9522C45.098 12.2392 44.8732 12.3672 44.7522 12.1874C44.1746 11.4092 43.7147 12.0283 43.2893 12.305C42.4039 12.8825 41.5843 13.5465 40.6436 14.0342C39.9 14.418 39.734 15.2792 39.2083 15.8637H39.1945ZM122.93 41.041C122.922 40.9234 122.881 40.8104 122.811 40.7155C122.741 40.6205 122.646 40.5475 122.536 40.5049C121.872 40.1591 121.263 40.3804 120.692 40.7401C119.606 41.4318 118.506 42.0923 117.459 42.8324C116.219 43.647 115.048 44.5619 113.959 45.5681C113.692 45.8274 113.502 46.1767 113.713 46.4915C113.924 46.8062 114.228 46.4915 114.464 46.3773C117.497 45.077 119.876 42.7079 122.819 41.2519C122.881 41.2174 122.906 41.1067 122.944 41.041H122.93ZM63.9533 22.5488C64.728 22.3413 65.4163 22.0854 65.8935 21.4525C66.0043 21.3183 66.1632 21.2326 66.3362 21.2138C67.5951 21.1654 68.2314 20.2766 68.8574 19.374C69.4246 18.5543 69.9122 17.6759 70.6385 16.9704C71.7244 15.9328 71.676 15.9328 71.0362 14.5875C70.8702 14.2417 70.6904 13.9339 70.3964 13.9235C70.0505 13.9235 70.0263 14.3593 69.9018 14.6359C69.4522 15.6423 69.2413 16.7456 68.4943 17.6309C67.2146 19.1388 65.9039 20.6017 64.2127 21.6704C63.8807 21.8744 63.8807 22.1787 63.9533 22.5488ZM125.008 67.2212C124.586 66.8304 124.199 66.699 123.794 67.159C123.625 67.3492 123.449 67.3596 123.307 67.1417C123.165 66.9238 122.999 67.0379 122.791 67.076C121.861 67.2316 122.131 67.9544 122.1 68.5043C122.034 69.4415 122.612 69.9119 123.369 69.3931C124.808 68.404 126.544 68.4663 128.048 67.7884C128.273 67.6881 128.688 67.8645 128.705 67.5429C128.692 67.3837 128.636 67.2311 128.543 67.1013C128.45 66.9716 128.323 66.8696 128.176 66.8062C127.689 66.5711 127.045 66.5434 126.682 66.201C126.06 65.6096 125.793 66.1215 125.465 66.4396C125.279 66.6788 125.125 66.9416 125.008 67.2212ZM121.896 64.8488C122.653 64.7106 123.391 64.4842 124.095 64.1744C124.479 64.0222 124.441 63.8285 124.375 63.4827C124.234 62.708 123.635 62.6527 123.068 62.4452C121.816 62.0059 120.993 62.6008 120.993 63.953C120.979 64.0735 120.992 64.1956 121.031 64.3103C121.071 64.425 121.136 64.5293 121.221 64.6154C121.307 64.7015 121.411 64.7672 121.525 64.8076C121.639 64.848 121.761 64.8621 121.882 64.8488H121.896ZM70.9912 76.9048C70.7318 75.9122 70.4725 74.9231 70.2027 73.934C70.1716 73.8268 70.1128 73.5882 69.9364 73.7265C69.4453 74.1 69.0234 73.9029 68.5945 73.6331C68.4389 73.5329 68.3663 73.5744 68.266 73.7265C68.0907 73.973 67.9965 74.2679 67.9965 74.5704C67.9965 74.8728 68.0907 75.1678 68.266 75.4142C68.8954 76.1059 69.7462 76.6385 70.5278 77.2022C70.8218 77.4028 71.0327 77.3164 70.9912 76.9048ZM69.0683 68.5977C68.8781 69.5107 68.4735 70.1125 67.4221 69.8946C67.2596 69.86 67.1697 69.9776 67.0763 70.0744C66.4192 70.6485 66.9137 71.15 67.1662 71.6722C67.4636 72.2844 67.806 72.0181 68.2037 71.7656C68.3834 71.6777 68.5761 71.6193 68.7744 71.5927C69.639 71.361 69.8119 71.0186 69.5283 70.1367C69.3358 69.6362 69.182 69.1217 69.0683 68.5977ZM69.8361 50.0986C68.8436 51.4474 67.5466 52.4296 67.391 54.1761C68.6049 53.5812 70.1059 51.4889 69.8361 50.0986ZM120.734 59.7476C120.624 59.5419 120.473 59.3619 120.288 59.2194C120.104 59.0769 119.892 58.9752 119.665 58.921C119.319 58.8449 119.354 59.1112 119.388 59.2669C119.489 59.751 119.696 60.1833 120.277 60.2179C120.488 60.2387 120.754 60.2248 120.734 59.7476ZM14.8507 112.848C14.9925 112.751 15.3106 112.938 15.2622 112.596C15.2138 112.253 14.7849 112.091 14.4944 112.049C14.3077 112.018 13.8201 111.925 13.8028 112.284C13.7336 113.156 14.5809 112.423 14.8507 112.848ZM56.0024 42.8013C55.788 43.6244 56.0232 43.953 56.9466 44.2296C56.788 44.0215 56.6134 43.8261 56.4244 43.6452C56.1857 43.455 56.1892 43.1472 56.0024 42.8013ZM136.113 46.0384C136.086 45.6649 135.767 45.6096 135.512 45.5508C135.384 45.5196 135.328 45.6753 135.352 45.7894C135.371 45.9319 135.438 46.0639 135.541 46.1633C135.645 46.2627 135.78 46.3236 135.923 46.3358C136.134 46.3635 136.103 46.1802 136.113 46.0453V46.0384ZM139.471 47.0379C139.323 47.8126 139.817 47.7538 140.184 47.8541L139.471 47.0379ZM23.763 115.124C23.6973 115.235 23.6316 115.293 23.6351 115.349C23.6486 115.449 23.6753 115.546 23.7146 115.639C23.7752 115.621 23.8342 115.598 23.891 115.57C23.8633 115.428 23.8183 115.311 23.763 115.124Z" fill="#010101"/>
<path id="Vector_2" d="M180.405 92.1427C179.838 89.6457 179.852 87.1591 179.156 84.7693C178.385 82.1271 177.389 79.5817 176.369 77.0363C175.84 75.7117 175.452 74.3387 174.674 73.1179C174.239 72.4262 174.235 71.5201 173.855 70.901C173.315 70.0226 172.917 69.0819 172.388 68.2069C168.968 62.5524 165.402 56.9878 161.761 51.4716C160.896 50.1643 160.031 48.8674 159.143 47.5636C159.094 47.491 159.022 47.4183 159.015 47.3423C158.887 45.7963 157.41 45.1877 156.725 44.0291C156.608 43.832 156.414 43.7974 156.227 43.7247C155.586 43.4592 155.065 42.9667 154.764 42.3414C154.635 42.1481 154.58 41.9146 154.609 41.684C154.638 41.4533 154.75 41.2409 154.923 41.086C155.081 40.8961 155.302 40.7688 155.545 40.7269C155.789 40.6851 156.039 40.7315 156.251 40.8577C156.473 40.9822 156.659 41.1724 156.881 41.3039C158.762 42.4244 160.173 44.0464 161.56 45.6891C162.31 46.5849 162.885 47.6155 163.576 48.5665C165.108 50.6762 166.689 52.7512 168.173 54.8989C169.075 56.2062 169.701 57.7002 170.573 59.0317C171.126 59.879 171.641 60.7609 172.195 61.591C172.761 62.3786 173.189 63.2569 173.46 64.1882C173.713 65.1946 174.522 65.959 174.681 66.9826C174.861 68.1447 175.874 69.0923 175.529 70.3857C175.48 70.5725 175.584 70.6693 175.816 70.6935C176.791 70.7869 177.157 71.4786 176.615 72.2671C176.314 72.7098 176.615 72.7893 176.874 72.9761C177.337 73.3219 178.226 73.5744 177.036 74.19C176.691 74.3768 177.012 74.6845 177.234 74.7503C178.022 74.9889 178.174 75.5319 178.14 76.2685C178.181 76.6023 178.3 76.9218 178.486 77.2023C178.663 77.7197 178.774 78.2579 178.814 78.8035C178.99 79.8618 178.959 81.0135 179.378 81.9645C180.035 83.4689 180.069 85.0771 180.415 86.6057C180.737 88.0514 180.523 89.58 180.979 91.0325C181.086 91.4095 180.844 91.8072 180.405 92.1427Z" fill="#010101"/>
<path id="Vector_3" d="M19.613 26.7542C19.5095 26.5491 19.448 26.3254 19.4319 26.0962C19.4159 25.8669 19.4457 25.6368 19.5196 25.4193C20.4465 21.1827 21.6742 17.0395 23.8461 13.2526C26.267 8.99869 29.0856 5.01805 32.6893 1.63571C33.6646 0.722691 34.8162 0.352639 36.0232 0.0171724C36.08 0.00214602 36.1392 -0.00142964 36.1974 0.0066524C36.2556 0.0147344 36.3116 0.0343122 36.3621 0.064247C36.4126 0.0941819 36.4567 0.133874 36.4917 0.181012C36.5268 0.228149 36.5521 0.281789 36.5662 0.338806C36.6233 0.498214 36.6348 0.670402 36.5994 0.835986C36.5639 1.00157 36.483 1.15397 36.3656 1.27604C35.5978 2.31356 34.5396 3.00525 33.5989 3.82835C33.3702 4.07522 33.1874 4.361 33.0594 4.67221C33.0109 4.76213 33.0351 4.9558 32.9072 4.9143C32.008 4.62379 32.2155 5.33277 32.0322 5.78582C31.7209 6.58472 30.9947 7.07235 30.4344 7.70178C30.3272 7.82629 30.1508 7.91966 30.1474 8.08567C30.1474 8.69089 29.7773 8.77735 29.2897 8.72894C29.1316 8.70381 28.9697 8.73695 28.8342 8.82219C28.6987 8.90743 28.5988 9.03898 28.553 9.19237C28.3594 9.66963 28.0827 10.1019 27.9098 10.5965C27.5639 11.5891 27.0313 12.4156 25.9315 12.7995C25.4197 12.9793 25.0185 13.4116 25.2952 14.0964C25.4923 14.591 25.3263 14.9852 24.9494 15.3829C24.3545 16.04 24.2058 17.0949 23.1786 17.3785C23.1475 17.3785 23.1337 17.4787 23.1233 17.5341C22.6668 19.6576 21.2869 21.4179 20.7785 23.5275C20.609 24.2192 19.9623 24.7864 20.2079 25.6614C20.3047 25.9311 19.8689 26.3392 19.613 26.7542ZM24.8006 15.376C24.4825 15.2688 24.1989 14.9472 23.8323 15.2273C23.8144 15.2615 23.8051 15.2994 23.8051 15.338C23.8051 15.3765 23.8144 15.4145 23.8323 15.4487C24.1539 15.67 24.4755 15.5282 24.8006 15.376Z" fill="#010101"/>
<path id="Vector_4" d="M19.346 114.301C19.7865 114.637 20.2952 114.873 20.8365 114.992C19.8613 115.248 19.3321 115.024 19.346 114.301Z" fill="#010101"/>
<path id="Vector_5" d="M92.5508 91.0777C92.6857 91.7106 93.2425 91.8178 93.7267 91.9423C96.5809 92.6678 99.3764 93.6077 102.089 94.754C103.424 95.3281 103.818 95.9333 103.552 97.3513C102.833 100.99 102.974 104.655 103.068 108.332C103.14 111.292 103.123 114.256 103.583 117.189C103.791 118.52 103.957 119.855 104.043 121.204C104.052 121.752 104.198 122.29 104.469 122.767C104.59 122.968 104.721 123.172 104.994 123.148C105.267 123.123 105.34 122.868 105.44 122.67C105.545 122.4 105.562 122.104 105.489 121.823C105.205 119.893 105.489 117.988 105.741 116.086C105.81 115.749 105.81 115.402 105.741 115.065C105.588 114.401 105.666 113.704 105.963 113.091C106.26 112.357 106.9 111.555 105.907 110.787C105.738 110.659 105.783 110.096 106.032 110.019C106.723 109.84 106.512 109.352 106.537 108.934C106.542 108.186 106.597 107.44 106.703 106.699C106.793 106.239 106.886 105.724 106.443 105.316C106.411 105.286 106.385 105.25 106.368 105.209C106.35 105.169 106.341 105.125 106.341 105.081C106.341 105.037 106.35 104.993 106.368 104.953C106.385 104.912 106.411 104.876 106.443 104.846C107.135 104.247 106.869 103.462 106.889 102.736C106.91 102.079 106.817 101.418 106.786 100.758C106.793 100.66 106.78 100.561 106.747 100.468C106.714 100.375 106.663 100.29 106.595 100.218C106.156 99.7722 106.063 99.3053 106.533 98.7831C106.616 98.6652 106.665 98.5276 106.678 98.3843C106.69 98.241 106.664 98.097 106.602 97.9669C106.512 97.6695 105.956 97.545 106.198 97.2026C106.485 96.7979 106.865 96.3241 107.301 96.1858C109.189 95.584 110.977 94.7367 112.834 94.0243C116.027 92.7896 119.205 91.5342 122.297 90.0333C126.409 88.0378 130.472 85.942 134.629 84.0364C135.459 83.6559 136.262 83.1994 137.106 82.8501C137.451 82.7049 137.496 82.5458 137.49 82.2172C137.475 82.0018 137.518 81.7864 137.614 81.5931C137.71 81.3998 137.856 81.2357 138.037 81.1177C138.218 80.9996 138.427 80.9319 138.642 80.9215C138.858 80.9112 139.072 80.9585 139.264 81.0587C139.686 81.2966 140.162 81.4239 140.647 81.4287C140.734 81.4255 140.82 81.4423 140.9 81.4778C140.979 81.5132 141.049 81.5664 141.104 81.6333C141.16 81.7001 141.199 81.7788 141.219 81.8632C141.24 81.9477 141.24 82.0357 141.221 82.1204C141.038 82.9539 141.913 83.0611 142.141 83.5902C142.19 83.6974 142.449 83.7389 142.487 83.9361C142.926 85.7275 144.247 87.0486 145.053 88.643C146.537 91.6034 148.301 94.4255 149.511 97.5277C149.857 98.3784 150.241 99.2085 150.611 100.045C151.003 100.824 151.106 101.716 150.901 102.563C150.04 105.619 149.026 108.629 147.861 111.583C147.789 111.763 147.678 111.929 147.515 112.205C147.27 111.821 147.028 111.514 146.602 111.514C146.225 111.516 145.857 111.629 145.544 111.839C141.335 114.439 137.144 117.061 132.924 119.641C129.746 121.584 126.419 123.269 123.12 124.994C119.661 126.81 116.276 128.799 112.997 130.953C110.742 132.427 108.442 133.838 106.364 135.56C105.748 136.072 105.257 136.712 104.552 137.127C104.326 137.276 104.065 137.363 103.796 137.379C103.526 137.394 103.256 137.337 103.016 137.213C99.1806 135.484 95.3279 133.793 91.496 132.057C87.8266 130.383 84.2056 128.57 80.6849 126.568C76.5556 124.216 72.4781 121.785 68.4905 119.205C65.6477 117.365 62.6112 115.888 59.6716 114.249C58.0703 113.36 56.4172 112.586 54.8056 111.735C53.7265 111.164 52.8239 110.324 51.5927 109.975C50.8491 109.76 50.5759 108.937 50.4341 108.169C49.49 103.113 48.9747 98.0015 48.4075 92.8968C48.0616 89.6736 47.6674 86.4538 47.2109 83.2409C47.1174 82.2395 47.1922 81.2296 47.4322 80.2529C47.7469 78.6481 47.8956 77.0123 48.1239 75.3903C48.1239 75.29 48.1723 75.1932 48.2346 74.958C48.9018 76.2898 49.6454 77.582 50.4618 78.828C51.0884 79.7918 51.9517 80.5789 52.9691 81.114C53.184 81.2291 53.4203 81.2987 53.6632 81.3182C53.9061 81.3378 54.1505 81.3071 54.381 81.2278C54.6115 81.1486 54.8232 81.0227 55.0028 80.8579C55.1823 80.6931 55.326 80.493 55.4246 80.2701C55.7992 79.4596 55.9894 78.5761 55.9814 77.6832C55.954 77.2649 56.0238 76.8458 56.1855 76.459C56.9048 77.0261 57.1054 77.9011 57.5343 78.6205C58.2464 79.866 59.2505 80.92 60.4601 81.6916C61.47 82.3175 62.1893 82.1066 62.6493 81.0172C63.2407 79.6684 63.0539 78.2504 62.9329 76.8671C62.9017 76.5212 62.6666 76.1269 63.0055 75.9022C63.3444 75.6774 63.7318 75.9955 63.9738 76.248C66.5711 78.8591 69.7944 80.5606 72.8689 82.4732C73.7336 82.9775 74.651 83.3857 75.6045 83.6905C77.0674 84.2024 78.3505 85.0912 79.6751 85.8832C82.3075 87.438 85.0879 88.7274 87.9753 89.7324C88.622 89.9606 89.2791 90.1681 89.9189 90.4241C90.5008 90.6559 91.1269 90.7551 91.7519 90.7146L92.5508 91.0777Z" fill="#F53B36"/>
<path id="Vector_6" d="M115.798 27.2765C115.674 26.3254 115.072 25.983 114.415 25.7063C113.844 25.4573 113.516 25.7063 113.454 26.2839C113.371 27.0551 113.588 27.7606 114.363 28.0442C115.027 28.2863 114.827 28.5249 114.526 28.895C113.9 29.6662 113.028 30.1297 112.274 30.7349C110.524 32.1182 108.646 33.263 106.267 33.0555C104.911 32.9379 103.639 32.6716 103.061 31.1949C102.99 31.0425 102.868 30.9201 102.715 30.849C101.577 30.3648 101.332 29.3446 101.124 28.2829C101.055 27.6564 100.914 27.0402 100.702 26.4464C100.633 26.2874 100.581 25.9968 100.325 26.0591C100.191 26.0902 100.07 26.2804 99.9796 26.4257C99.4401 27.4909 99.779 28.5664 99.9796 29.6316C100.176 30.5289 100.547 31.3787 101.072 32.1321C101.853 33.4084 102.305 34.8578 102.39 36.3514C102.639 38.8795 103.607 41.1551 104.811 43.3477C105.223 44.0982 105.6 44.866 106.053 45.5888C106.212 45.8482 106.398 46.3082 106.82 46.1283C107.242 45.9485 107.042 45.5162 106.962 45.1945C106.641 43.8527 105.987 42.6319 105.496 41.3557C104.87 39.7268 104.517 38.0287 104.009 36.3721C103.746 35.5179 104.054 35.2896 104.936 35.5179C105.879 35.7748 106.857 35.8798 107.834 35.8291C108.245 35.8049 108.418 35.8776 108.276 36.3514C107.931 37.5376 108.072 38.7446 108.228 39.9447C108.554 42.1092 108.512 44.3133 108.103 46.4638C107.572 48.8817 106.465 51.1358 104.877 53.0348C103.493 54.7363 101.619 54.8539 99.6199 54.3317C96.5731 53.5224 94.6986 51.3747 93.2772 48.7187C90.9047 44.2469 90.2061 39.4328 90.5104 34.4527C90.657 32.9815 91.3388 31.6154 92.4264 30.6138C92.8725 30.1677 93.2046 29.808 93.1181 29.0818C93.0074 28.1791 93.6784 27.4874 94.128 26.7784C96.8705 22.4312 100.215 18.5578 103.642 14.7501C104.382 13.9235 105.122 13.0935 105.897 12.298C106.876 11.2951 107.429 11.4023 108.124 12.6058C109.656 15.1848 111.787 17.3569 114.336 18.9382C115.656 19.7358 116.913 20.6342 118.095 21.6254C118.866 22.3171 118.866 22.7874 118.271 23.6313C117.462 24.776 116.698 25.9519 115.798 27.2765ZM113.059 25.3017C113.032 25.0596 113.007 24.7726 112.966 24.489C112.963 24.3445 112.911 24.2054 112.819 24.0943C112.726 23.9831 112.599 23.9065 112.458 23.8768C112.077 23.7973 111.942 24.0947 111.849 24.3541C111.69 24.8106 111.576 25.2844 111.458 25.7548C111.439 25.942 111.353 26.1158 111.214 26.2433C111.076 26.3709 110.896 26.4431 110.708 26.4464C109.511 26.5294 108.83 27.4459 109.034 28.646C109.045 28.8046 109.091 28.9589 109.168 29.0983C109.244 29.2377 109.35 29.359 109.478 29.4538C109.605 29.5487 109.752 29.6149 109.907 29.648C110.063 29.681 110.224 29.6802 110.379 29.6455C110.925 29.6098 111.439 29.379 111.828 28.9953C112.755 27.9301 112.904 26.6436 113.059 25.3017ZM106.921 25.3501C107.317 25.4142 107.723 25.3553 108.085 25.1816C108.446 25.0079 108.746 24.7275 108.944 24.3783C109.12 24.0912 109.331 23.7765 109.086 23.4272C108.84 23.0779 108.442 23.1367 108.072 23.2474C106.81 23.6313 106.796 23.6244 106.551 22.3136C106.499 22.0439 106.454 21.8364 106.129 22.0439C105.707 22.3136 105.254 23.7731 105.416 24.3541C105.448 24.5189 105.513 24.6757 105.606 24.8153C105.7 24.9549 105.82 25.0745 105.96 25.1672C106.1 25.2599 106.257 25.3238 106.422 25.3552C106.587 25.3866 106.756 25.3849 106.921 25.3501ZM108.601 32.0007C108.764 31.9856 108.916 31.9135 109.031 31.797C109.145 31.6805 109.215 31.5272 109.227 31.3643C109.283 30.887 107.92 29.891 107.273 29.891C107.173 29.8771 107.071 29.8873 106.976 29.9207C106.88 29.9541 106.794 30.0098 106.724 30.0832C106.655 30.1566 106.604 30.2455 106.575 30.3426C106.547 30.4397 106.542 30.5422 106.561 30.6415C106.582 31.3021 107.505 32.0041 108.601 32.0007Z" fill="#FCFCFC"/>
<path id="Vector_7" d="M43.6659 76.5351C42.6776 75.8197 41.8961 74.8556 41.4007 73.7407C39.6589 70.1681 38.1906 66.4685 37.0085 62.6737C35.8672 59.0124 34.7363 55.3465 33.6158 51.676C33.4152 51.0189 33.2457 50.3514 33.0693 49.6874C32.8169 48.7467 33.2526 48.304 34.2417 48.6256C35.6533 49.0939 37.0969 49.4591 38.5613 49.7185C43.1161 50.4828 47.6535 51.3682 52.2428 51.9111C53.3841 52.0495 54.5219 52.2224 55.6667 52.3296C56.6385 52.4195 57.05 53.1043 57.2887 53.879C58.5199 57.8804 60.5085 61.5636 62.089 65.4163C62.9605 67.5328 63.6833 69.7082 64.7001 71.7625C65.0185 72.3662 65.2668 73.0044 65.4402 73.6646C64.7762 73.1112 64.0914 72.5821 63.4516 72.0046C62.6043 71.2402 61.6048 71.6138 61.1344 72.8484C60.7886 73.7718 61.0756 74.7263 61.0722 75.6705C61.0722 76.708 61.0722 77.7698 61.0722 78.8695C59.6542 78.4234 58.9556 77.2475 58.2224 76.1478C57.1213 74.5798 56.3214 72.8207 55.8638 70.9601C55.6598 70.0436 54.8263 69.6909 54.1968 69.1825C53.7749 68.8366 53.557 69.4107 53.4567 69.7255C53.3282 70.2892 53.3401 70.8759 53.4913 71.4339C53.7542 72.9314 54.1346 74.4116 54.0862 75.9472C54.0862 76.1201 54.0862 76.293 54.0689 76.4625C54.0135 77.002 54.0274 77.621 53.4118 77.8458C52.7962 78.0706 52.4745 77.5277 52.146 77.1541C51.1332 75.987 50.3305 74.653 49.7735 73.2115C49.2019 71.7483 48.4908 70.3435 47.65 69.0165C47.581 68.8914 47.4868 68.7819 47.3734 68.6948C47.0932 68.5219 46.9272 68.0654 46.5226 68.2176C46.118 68.3698 46.028 68.8263 46.0419 69.2378C46.1145 71.3129 46.2044 73.3706 46.2805 75.4353C46.3178 75.8385 46.2597 76.2449 46.1111 76.6216C46.0384 76.7841 45.9762 76.9674 45.7652 76.9086C45.5542 76.8498 45.6372 76.6838 45.6061 76.5628C45.5364 76.1388 45.4452 75.7186 45.3329 75.3039C45.2153 74.9581 45.0147 74.5915 44.579 74.5776C44.1432 74.5638 44.0567 74.9511 43.9703 75.2693C43.8838 75.5875 43.7801 76.0475 43.6659 76.5351ZM58.7793 71.5999C58.6063 71.4547 58.5302 71.3855 58.4507 71.3232C58.2605 71.178 58.2052 70.8529 57.8835 70.8909C57.8488 70.905 57.8183 70.9275 57.7947 70.9566C57.7711 70.9856 57.7553 71.0201 57.7486 71.057C57.7936 71.4028 58.0945 71.4823 58.3331 71.593C58.4807 71.617 58.631 71.6193 58.7793 71.5999Z" fill="#FCFCFC"/>
<path id="Vector_8" d="M161.457 113.509C161.405 112.547 161.661 111.749 161.834 110.946C162.154 109.484 162.209 107.977 161.996 106.495C161.884 105.899 161.626 105.339 161.246 104.866C160.807 104.261 159.98 104.361 159.416 105.05C158.725 105.88 158.413 106.903 157.912 107.834C155.764 111.835 153.762 115.94 150.85 119.468C150.224 120.287 149.516 121.041 148.737 121.716C148.447 121.946 148.1 122.094 147.734 122.145C147.634 120.761 147.969 119.461 148.315 118.181C148.896 116.037 149.612 113.931 150.207 111.79C150.611 110.331 151.144 108.875 151.59 107.408C151.924 106.251 152.197 105.077 152.406 103.891C152.474 103.392 152.678 102.921 152.996 102.53C153.314 102.139 153.733 101.843 154.208 101.674C156.887 100.586 159.422 99.1711 161.754 97.4618C163.535 96.1788 165.472 95.1239 167.104 93.6161C169.156 91.7865 170.936 89.6741 172.392 87.3425C172.482 87.1903 172.517 86.8998 172.766 86.9552C173.015 87.0105 172.953 87.2699 173.011 87.4566C173.748 89.8983 173.599 92.3952 173.509 94.8888C173.44 96.784 173.402 98.693 173.254 100.571C173.074 102.843 172.593 105.046 171.362 107.021C171.3 107.15 171.223 107.272 171.134 107.384C170.826 107.685 170.636 108.276 170.055 108.013C169.57 107.796 169.819 107.287 169.854 106.948C170.025 105.811 170.018 104.653 169.833 103.518C169.827 103.374 169.806 103.231 169.771 103.092C169.484 102.487 169.359 101.671 168.522 101.605C167.685 101.539 167.526 102.359 167.291 102.937C166.157 105.741 165.216 108.629 163.594 111.219C163.077 112.144 162.343 112.929 161.457 113.509Z" fill="#FCFCFC"/>
<path id="Vector_9" d="M56.4273 18.9383C56.1407 18.8304 55.8631 18.6997 55.5973 18.5475C55.3414 18.3781 55.2134 18.3435 54.9609 18.589C54.5459 18.9937 53.958 18.6928 53.4392 18.8242C52.5539 19.0455 51.6893 19.17 51.0425 19.9274C50.7175 20.3148 50.1468 20.4047 49.6799 20.5638C49.7802 19.9171 49.8909 19.6784 51.1567 19.132C52.6438 18.4922 54.0064 17.593 55.5973 17.1676C57.1882 16.7422 58.1392 17.4443 57.9836 19.0421C57.9456 19.4225 58.0701 20.1142 57.247 19.7338C57.1985 19.713 57.0291 19.8375 56.991 19.9274C56.6452 20.6779 56.0192 21.1863 55.5039 21.7915C55.2722 22.0647 55.248 22.6388 54.6601 22.1685C54.5771 22.1028 54.4145 22.4728 54.3523 22.6803C54.2208 23.1299 54.0272 23.4343 53.5084 23.0781C53.2525 22.9017 53.0726 23.0296 52.9516 23.2614C52.7813 23.5631 52.5359 23.8157 52.2392 23.9945C51.6512 24.3715 50.7002 24.2608 50.4823 25.2465L50.3509 24.4718C49.887 24.6727 49.5095 25.0318 49.2857 25.4851C48.7842 26.4846 47.7882 26.6714 46.9409 27.1071C46.806 27.1763 46.6261 27.197 46.5673 27.038C46.2907 26.3117 45.7615 26.9792 45.7477 27.038C45.4364 28.0029 44.513 27.7296 43.9009 27.8611C43.0398 28.0582 42.438 28.7533 41.5423 28.8467C41.0754 28.8951 40.6362 29.1926 40.1347 28.992C40.0972 28.9751 40.0565 28.9663 40.0154 28.9663C39.9742 28.9663 39.9336 28.9751 39.8961 28.992C38.4643 30.0295 37.0913 29.1753 35.7459 28.8156C34.8295 28.57 34.6531 27.9371 35.1995 27.1867C36.4537 25.4381 37.9702 23.8936 39.6955 22.6077C45.6924 18.1809 52.2703 14.8263 59.1975 12.1494C60.1762 11.7725 61.1515 11.15 62.3101 11.3436C63.4652 10.23 64.8728 10.4998 66.2665 10.562C66.851 10.5862 67.3352 10.5862 67.7433 11.105C68.1991 11.6312 68.824 11.9822 69.5105 12.0976C70.2541 12.2532 70.3959 12.8584 70.6449 13.4118C70.7279 13.5916 70.6172 13.6089 70.5377 13.6573C70.3302 13.7818 70.1676 13.6954 70.0016 13.5466C69.4054 13.0055 68.6859 12.6184 67.9058 12.4192C67.6879 12.3604 67.3974 12.2324 67.2453 12.3189C66.353 12.8204 65.3085 12.6647 64.3713 13.0313C63.7211 13.2907 62.9291 13.0867 62.189 13.3772C59.7232 14.3698 57.202 15.2205 54.7292 16.1993C53.7509 16.5978 52.8129 17.0888 51.9279 17.6656C51.4318 17.9431 50.8773 18.0995 50.3094 18.1221C49.7941 18.1878 49.1888 17.9665 49.0159 18.7654C48.9744 18.966 48.6701 18.8692 48.4695 18.9037C48.2689 18.9383 47.9438 18.8242 48.1617 19.2496C48.3035 19.5228 48.0406 19.547 47.8504 19.6231C47.1414 19.9205 46.4325 20.2387 45.7477 20.5776C44.646 21.1425 43.617 21.8393 42.6835 22.6527C41.5457 23.6107 40.3456 24.4926 39.1732 25.4021C39.111 25.4505 38.9899 25.5197 38.9554 25.4955C38.7306 25.3364 38.5542 24.9525 38.2326 25.3641C37.8465 25.8108 37.4994 26.2899 37.195 26.7959C37.0221 27.1244 37.3714 27.1694 37.6515 27.1936C39.4568 27.3561 41.11 26.7094 42.7631 26.1803C44.2018 25.7168 45.5575 24.911 47.0204 24.6205C48.4038 24.3508 49.175 23.0469 50.4788 22.9259C51.295 22.8498 51.5579 22.3864 52.0801 21.9402C53.3804 20.7817 54.9644 19.9101 56.4273 18.9383Z" fill="#FCFCFC"/>
<path id="Vector_10" d="M112.122 82.7947C112.894 82.6632 113.506 82.5387 114.139 82.4488C115.252 82.2897 115.802 82.8119 115.968 83.9256C116.072 84.6449 116.466 85.3262 115.788 85.9764C115.647 86.1113 115.539 86.3222 115.349 86.3499C114.657 86.4364 114.478 87.1626 113.966 87.4912C113.305 87.9027 112.866 88.6809 111.967 88.7086C111.851 88.7133 111.739 88.7561 111.65 88.8305C111.56 88.9049 111.498 89.0067 111.472 89.1201C111.389 89.3856 111.216 89.6141 110.984 89.7667C110.751 89.9193 110.473 89.9866 110.196 89.957C109.504 89.8879 109.055 90.2026 108.55 90.5761C107.831 91.0868 106.95 91.3157 106.074 91.2194C103.871 91.0534 103.013 89.4902 104.061 87.5431C105.098 85.6513 106.585 84.1642 108.211 82.7912C110.29 81.0819 112.501 79.5392 114.823 78.1777C115.12 77.9771 115.463 77.8576 115.82 77.8309C116.177 77.8042 116.534 77.8713 116.857 78.0255C117.309 78.2079 117.771 78.366 118.24 78.4993C118.41 78.5512 118.61 78.565 118.652 78.7552C118.668 78.8564 118.651 78.9601 118.603 79.0507C118.555 79.1412 118.479 79.2135 118.386 79.2567C117.791 79.6025 117.213 79.9484 116.483 79.9968C115.937 80.0279 115.446 80.1351 115.1 80.7784C114.865 81.2211 114.111 81.2972 113.61 81.5773C113.035 81.8816 112.665 82.3347 112.122 82.7947ZM111.555 85.3781C111.393 85.2939 111.205 85.2742 111.03 85.3228C109.38 85.7482 108.225 86.9621 106.879 87.882C106.634 88.0515 106.302 88.3212 106.43 88.629C106.558 88.9368 106.945 88.795 107.222 88.7604C109.778 88.4457 111.621 86.841 113.482 85.2743C113.637 85.1429 113.827 84.8939 113.613 84.676C113.399 84.4582 113.191 84.6553 112.984 84.7417C112.496 84.9458 112.102 85.3815 111.555 85.3781ZM110.224 83.6938C110.355 83.5417 110.691 83.6039 110.684 83.3065C110.684 83.1059 110.497 83.0679 110.338 83.0437C110.027 83.0056 110.034 83.2062 110.047 83.4103C110.04 83.5313 109.999 83.6973 110.224 83.6938Z" fill="#FCFCFC"/>
<path id="Vector_11" d="M128.84 48.2935C131.455 48.3765 133.879 48.3557 136.259 47.6641C137.144 47.4081 138.026 47.3874 138.763 48.0929C139.001 48.3212 139.209 48.6117 139.026 48.9298C138.766 49.3864 138.642 48.8468 138.448 48.795C138.349 48.7764 138.246 48.7864 138.153 48.8238C138.059 48.8611 137.978 48.9243 137.919 49.0059C137.3 49.6388 136.504 49.7979 135.681 49.9708C134.644 50.1853 133.662 50.6383 132.569 50.538C132.253 50.565 131.938 50.4924 131.666 50.3305C131.576 50.2613 131.479 50.1161 131.303 50.2406C130.449 50.8354 129.48 50.5864 128.56 50.5553C127.153 50.4931 125.707 50.6418 124.355 50.1299C123.563 49.829 122.726 49.58 122.055 49.0301C121.502 48.5771 121.533 47.8162 122.103 47.0173C122.639 46.3051 123.355 45.7497 124.179 45.4092C126.108 44.5549 127.962 43.4967 130.148 43.3895C131.05 43.3445 131.58 43.9843 132.195 44.427C132.52 44.6587 132.174 44.9665 131.867 44.9942C130.397 45.1187 129.1 45.8691 127.654 46.1216C126.665 46.2945 125.759 46.9897 124.836 47.4842C124.49 47.6744 124.632 47.8958 124.919 48.0376C125.273 48.2008 125.661 48.2759 126.051 48.2567C126.441 48.2374 126.82 48.1243 127.156 47.9269C128.54 47.2352 129.816 46.3533 131.306 45.9003C132.295 45.5994 133.229 45.091 134.353 45.3296C134.55 45.3436 134.736 45.4259 134.879 45.5623C135.021 45.6987 135.112 45.8806 135.135 46.0766C135.204 46.5332 134.789 46.592 134.467 46.6715C132.908 47.0415 131.355 47.4081 129.788 47.7886C129.425 47.8462 129.091 48.024 128.84 48.2935Z" fill="#FCFCFC"/>
<path id="Vector_12" d="M163.137 75.0131C164.023 75.4696 164.763 75.9676 164.766 77.0882C164.766 78.0392 164.472 78.3747 163.531 78.4923C160.97 78.852 158.36 78.4403 156.034 77.3095C155.547 77.0685 155.096 76.7599 154.695 76.393C154.521 76.2524 154.38 76.0753 154.282 75.874C154.184 75.6728 154.131 75.4525 154.128 75.2287C154.125 75.0049 154.171 74.7832 154.263 74.5791C154.355 74.3751 154.491 74.1939 154.661 74.0482C156.2 72.5161 158.15 72.0596 160.229 71.9524C160.716 71.9282 161.204 71.904 161.688 71.8486C162.348 71.7415 163.025 71.7895 163.663 71.9887C164.302 72.188 164.886 72.5331 165.368 72.9968C165.943 73.4593 166.392 74.0602 166.672 74.7433C166.841 75.2068 166.706 75.3036 166.284 75.2656C165.24 75.1826 164.175 75.0996 163.137 75.0131ZM161.487 74.7745C160.028 74.8402 158.721 74.5289 157.403 75.0823C158.295 76.023 160.692 76.7734 161.723 76.4656C160.55 75.6564 160.519 75.5146 161.491 74.7745H161.487Z" fill="#FCFCFC"/>
<path id="Vector_13" d="M71.5725 58.2295C70.8808 57.6554 70.9292 56.9948 71.3788 56.2616C72.0705 55.1238 73.1253 54.3837 74.1939 53.6643C76.0373 52.4158 77.8668 51.1293 79.9972 50.3996C81.2076 49.9811 82.4181 49.7563 83.6735 50.3996C83.9895 50.5291 84.2642 50.7426 84.4678 51.0169C84.6714 51.2911 84.7961 51.6158 84.8286 51.9559C85.0499 53.7612 85.2471 55.5838 84.7594 57.3476C84.3617 58.7932 84.0193 60.308 83.1028 61.5461C82.8158 61.9334 83.1547 62.1928 83.0579 62.5006C82.8192 63.2545 82.6602 64.0085 82.1414 64.6794C81.1212 65.9867 80.2254 67.3943 79.2502 68.7396C78.878 69.2101 78.4808 69.6604 78.0605 70.0884C77.4345 70.7801 77.1232 69.9535 76.7324 69.7425C76.3416 69.5316 76.7705 69.2445 76.9019 69.1062C77.8701 68.0932 78.7734 67.0201 79.6064 65.8933C81.9374 62.6874 83.6251 59.2047 84.1023 55.2275C84.1663 54.4936 84.1031 53.7542 83.9156 53.0418C83.8319 52.7199 83.6475 52.4332 83.3892 52.2235C83.131 52.0138 82.8126 51.8922 82.4803 51.8763C81.135 51.7 80.0006 52.2671 78.9043 52.8862C77.4873 53.7488 76.1149 54.6827 74.7922 55.6841C73.6683 56.4933 72.7552 57.5308 71.5725 58.2295Z" fill="#FCFCFC"/>
<path id="Vector_14" d="M92.5508 91.0777L91.7588 90.6904C92.8482 89.3969 93.5295 87.8372 94.5255 86.4815C97.8215 82.0171 101.817 78.1142 106.357 74.9234C108.681 73.3083 111.043 71.7659 113.619 70.6108C114.837 70.0678 116.04 69.6355 117.424 69.9571C117.853 70.0574 118.313 69.4072 118.807 69.8949C118.887 69.9607 118.97 70.0219 119.056 70.0782C117.868 70.618 116.645 71.0801 115.397 71.4615C113.741 71.9907 112.506 73.2219 110.873 73.7856C109.963 74.1372 109.169 74.7361 108.581 75.5148C108.368 75.7457 108.116 75.9376 107.837 76.082C105.928 77.2267 104.092 78.4718 102.549 80.1007C101.892 80.7924 100.975 81.0933 100.315 81.8299C99.3431 82.9297 98.0255 83.7251 97.3684 85.1154C96.3723 85.2952 96.3308 86.2878 95.857 86.9103C95.3452 87.602 95.2172 88.5807 94.235 88.892C94.1687 88.924 94.1119 88.9728 94.07 89.0334C94.0282 89.094 94.0028 89.1645 93.9964 89.2378C94.1416 90.3342 93.0834 90.4932 92.5508 91.0777Z" fill="#FCFCFC"/>
<path id="Vector_15" d="M146.333 56.7768C145.932 56.7076 145.527 56.6557 145.382 57.2679C145.285 57.6587 144.825 57.6725 144.524 57.759C141.592 58.6166 138.697 59.6127 135.702 60.2525C134.869 60.4849 133.988 60.4765 133.16 60.2283C133.069 60.1888 132.969 60.1773 132.871 60.1951C132.774 60.213 132.684 60.2594 132.613 60.3286C131.797 60.9926 130.884 60.7159 130.002 60.5326C129.567 60.4392 129.532 60.128 129.95 59.8963C130.598 59.5278 131.298 59.2585 132.026 59.0974C133.364 58.8103 134.564 58.0979 135.927 57.8247C138.389 57.3267 140.876 56.8874 143.252 56.0367C144.192 55.6908 145.098 55.2723 146.018 54.9369C146.651 54.7121 147.18 54.7743 147.433 55.5663C147.727 56.4759 147.402 56.884 146.333 56.7768Z" fill="#FCFCFC"/>
<path id="Vector_16" d="M127.785 82.8256C127.342 82.8256 126.367 81.8676 126.308 81.4803C126.277 81.2659 126.419 81.2763 126.536 81.2071C126.839 81.0493 127.12 80.8541 127.373 80.6261C127.615 80.384 127.781 80.301 128.048 80.5707C128.14 80.6653 128.262 80.7255 128.394 80.7412C128.525 80.7569 128.658 80.7273 128.77 80.6572C130.088 79.9309 131.662 79.9655 132.99 79.2496C133.187 79.1424 133.491 79.1424 133.509 78.8761C133.543 78.3504 133.792 78.264 134.238 78.3988C134.328 78.4265 134.543 78.347 134.549 78.302C134.643 77.4167 135.49 77.8317 135.891 77.5031C136.12 77.3164 136.113 77.5412 136.182 77.6138C136.379 77.8178 136.59 77.9804 136.811 77.6795C137.033 77.3786 137.119 77.5861 137.226 77.7625C137.389 78.0323 137.538 78.4334 137.724 77.7625C137.811 77.4616 138.022 77.6484 138.07 77.7625C138.198 77.9908 138.63 78.1775 138.253 78.5303C137.998 78.7689 137.998 78.8277 138.305 78.9418C138.613 79.0559 139.205 79.0006 139.187 79.4225C139.17 79.8445 138.603 79.969 138.195 80.1142C137.569 80.3321 136.915 80.4324 136.286 80.6053C133.571 81.3523 130.773 81.7743 128.12 82.7495C128.011 82.7845 127.899 82.81 127.785 82.8256Z" fill="#F53B36"/>
<path id="Vector_17" d="M131.358 74.4599C131.579 74.8992 131.704 75.1516 132.295 74.7193C132.686 74.4323 133.374 74.3735 133.913 74.2352C135.314 73.8478 135.297 75.4006 136.379 75.5736C135.674 76.0536 134.854 76.3387 134.003 76.4001C132.771 76.4153 131.566 76.7656 130.517 77.4134C130.355 77.5137 130.116 77.6486 129.974 77.5967C128.76 77.1437 127.834 77.8769 126.831 78.2884C126.522 78.4392 126.194 78.5451 125.855 78.6031C125.482 78.6481 125.025 78.8141 124.762 78.361C124.472 77.8561 124.382 77.2405 124.731 76.8082C125.081 76.3759 125.745 76.4416 126.27 76.3448C127.118 76.1892 127.934 75.8226 128.819 75.8848C129.075 74.8473 129.967 75.4698 130.548 75.2692C130.974 75.124 130.974 74.7332 131.358 74.4599Z" fill="#F53B36"/>
<path id="Vector_18" d="M98.4198 13.5779C98.8978 13.5675 99.3716 13.6693 99.8031 13.8753C100.436 14.2211 100.602 14.7399 100.073 15.2414C99.1011 16.1579 98.2157 17.1608 97.2543 18.0842C96.3516 18.9488 95.072 18.6306 94.1728 17.4271C93.6471 16.7354 94.0241 15.4696 94.9821 14.7572C95.9819 14.0246 97.1808 13.6133 98.4198 13.5779Z" fill="#FCFCFC"/>
<path id="Vector_19" d="M68.6875 64.2886C70.3752 62.8049 71.0773 60.4497 73.1247 59.2877C73.678 58.973 74.2279 58.4369 74.923 58.9419C75.2689 59.184 75.3553 60.7714 75.0233 61.1725C74.4769 61.8331 74.0377 62.6113 73.2077 63.0159C72.7191 63.2575 72.3345 63.6678 72.1252 64.171C71.7482 65.001 69.7838 65.6616 68.8777 65.3642C68.8155 64.9976 68.7532 64.6413 68.6875 64.2886Z" fill="#FCFCFC"/>
<path id="Vector_20" d="M82.079 43.2094C81.9752 41.2969 81.7331 41.1344 80.0904 41.9575C78.6376 42.7393 77.3022 43.722 76.1236 44.8764C74.5327 46.3289 73.2392 48.0927 71.4512 49.3378C71.292 49.4385 71.1591 49.5758 71.0634 49.7382C70.9678 49.9006 70.9122 50.0834 70.9013 50.2715C70.9013 50.4583 70.9256 50.7592 70.6593 50.7246C70.393 50.69 70.3895 50.3787 70.4275 50.1574C70.5022 49.5842 70.7185 49.0386 71.057 48.57C73.5125 45.4574 76.1824 42.5696 79.8794 40.875C80.5711 40.5568 81.3319 40.3977 81.9787 40.9407C82.6254 41.4837 82.6219 42.2169 82.079 43.2094Z" fill="#FCFCFC"/>
<path id="Vector_21" d="M39.208 15.8638C39.7337 15.2793 39.8997 14.4182 40.6363 14.0274C41.577 13.5328 42.3967 12.8688 43.282 12.2982C43.7074 12.0215 44.1674 11.4024 44.7449 12.1806C44.8798 12.3604 45.115 12.2324 45.0908 11.9454C45.07 11.4128 45.4366 11.233 45.8482 11.0289C47.695 10.1332 49.3827 8.93657 51.2641 8.08926C52.3811 7.58433 53.474 7.01023 54.5807 6.47418C54.7369 6.40658 54.9006 6.35781 55.0683 6.32892C55.2365 6.28152 55.4147 6.28373 55.5816 6.33527C55.7485 6.38681 55.8969 6.48549 56.009 6.61943C56.0782 6.70589 56.1577 6.85806 56.0471 6.92031C55.7427 7.10015 55.4384 7.38028 55.0407 7.15894C54.9438 7.10361 54.7744 6.99986 54.764 7.08286C54.6706 7.95092 53.8268 7.72612 53.3806 8.04776C52.0845 8.88816 50.6909 9.56756 49.2305 10.0709C48.1619 10.4825 47.363 11.2779 46.3877 11.8209C45.8793 12.1045 45.2568 12.2048 44.8383 12.6648C44.8057 12.6817 44.7696 12.6906 44.7328 12.6906C44.6961 12.6906 44.6599 12.6817 44.6274 12.6648C43.9979 12.229 43.6555 12.6855 43.244 13.0521C42.0015 14.1289 40.6487 15.0714 39.208 15.8638Z" fill="#FCFCFC"/>
<path id="Vector_22" d="M125.572 71.4233C126.104 71.5097 126.692 71.821 126.983 71.0152C127.02 70.9576 127.071 70.9106 127.132 70.8785C127.192 70.8464 127.26 70.8304 127.329 70.8319C128.442 71.2953 129.127 70.4618 129.926 69.9915C130.092 69.8947 130.306 69.784 130.369 69.9465C130.631 70.6382 131.195 70.4445 131.721 70.3927C131.721 70.8181 131.375 71.1224 131.666 71.5755C131.797 71.7864 131.233 72.07 130.863 72.1392C129.542 72.3813 128.221 72.6268 126.914 72.9484C126.101 73.149 125.395 73.6159 124.555 73.737C123.656 73.8649 123.044 73.3634 123.127 72.4539C123.127 72.3155 123.127 72.0458 123.365 72.3432C123.96 71.6896 125.067 72.2533 125.582 71.4129L125.572 71.4233Z" fill="#F53B36"/>
<path id="Vector_23" d="M122.943 41.0412C122.905 41.1069 122.881 41.2176 122.819 41.2487C119.876 42.7047 117.496 45.0737 114.463 46.3741C114.228 46.4779 113.937 46.8203 113.713 46.4882C113.488 46.1562 113.692 45.8242 113.958 45.5648C115.053 44.5593 116.228 43.6455 117.472 42.8327C118.509 42.0926 119.62 41.4251 120.706 40.7403C121.276 40.3945 121.885 40.1628 122.549 40.5052C122.659 40.5477 122.754 40.6208 122.824 40.7157C122.894 40.8107 122.935 40.9236 122.943 41.0412Z" fill="#FCFCFC"/>
<path id="Vector_24" d="M63.9528 22.549C63.8906 22.1789 63.8871 21.8746 64.2122 21.6705C65.9034 20.6019 67.2141 19.139 68.4937 17.6311C69.2408 16.7457 69.4517 15.6425 69.9013 14.6361C70.0258 14.3594 70.0362 13.9098 70.3959 13.9237C70.6933 13.9237 70.8697 14.2384 71.0357 14.5877C71.6686 15.9365 71.7274 15.9192 70.638 16.9705C69.9117 17.6622 69.4241 18.5545 68.8569 19.3741C68.2309 20.2768 67.5945 21.1656 66.3357 21.214C66.1627 21.2328 66.0038 21.3184 65.893 21.4526C65.4157 22.0855 64.7275 22.3415 63.9528 22.549Z" fill="#FCFCFC"/>
<path id="Vector_25" d="M125.008 67.2216C125.123 66.9424 125.274 66.6796 125.458 66.44C125.787 66.1218 126.053 65.61 126.675 66.2014C127.038 66.5472 127.682 66.5714 128.169 66.8066C128.316 66.8699 128.443 66.9719 128.536 67.1017C128.629 67.2314 128.685 67.384 128.699 67.5432C128.699 67.8649 128.266 67.6885 128.041 67.7888C126.537 68.4805 124.801 68.4044 123.362 69.3935C122.605 69.9123 122.027 69.4419 122.093 68.5047C122.131 67.9548 121.861 67.232 122.785 67.0763C122.992 67.0383 123.13 66.9311 123.3 67.1421C123.469 67.353 123.618 67.3496 123.788 67.1593C124.199 66.6994 124.586 66.8308 125.008 67.2216Z" fill="#F53B36"/>
<path id="Vector_26" d="M68.2138 61.992C68.0201 62.1407 67.906 62.4451 67.5844 62.3621C66.3912 62.0474 65.3226 62.4485 64.2919 62.9638C63.9115 63.1506 63.7282 63.1506 63.6314 62.7114C63.584 62.5158 63.5057 62.329 63.3997 62.158C62.9397 61.4249 63.1507 60.9683 63.9599 60.7401C64.0533 60.7124 64.0014 60.8162 64.4095 60.9891C64.6325 61.0985 64.8852 61.1317 65.1289 61.0836C65.3725 61.0354 65.5936 60.9087 65.7583 60.7228C65.8628 60.5865 65.9456 60.4348 66.0039 60.2732C66.1941 59.8063 66.7128 59.7544 67.0414 59.6645C67.3699 59.5746 67.3872 60.1625 67.5117 60.4669C67.6362 60.7712 67.5636 61.1309 68.0305 61.1309L68.2138 61.992Z" fill="#F53B36"/>
<path id="Vector_27" d="M68.6877 64.2886C68.7534 64.6344 68.8156 64.9976 68.8779 65.3503C68.8294 65.378 68.7395 65.3987 68.7326 65.4333C68.5459 66.7129 67.5222 66.9204 66.5227 67.1625C65.5232 67.4046 65.0425 67.1625 64.9249 66.3221C64.835 65.6789 65.3088 65.2154 66.208 65.1774C67.1072 65.1393 68.0098 65.001 68.6877 64.2886Z" fill="#F53B36"/>
<path id="Vector_28" d="M121.881 64.8456C121.759 64.863 121.635 64.852 121.518 64.8136C121.401 64.7752 121.294 64.7103 121.206 64.624C121.118 64.5377 121.051 64.4323 121.011 64.316C120.97 64.1997 120.957 64.0756 120.972 63.9533C120.972 62.6011 121.802 62.0062 123.047 62.4454C123.614 62.6426 124.212 62.6979 124.354 63.4829C124.42 63.8288 124.458 64.0328 124.074 64.1746C123.372 64.4843 122.636 64.7096 121.881 64.8456Z" fill="#F53B36"/>
<path id="Vector_29" d="M70.9906 76.9049C71.0321 77.3165 70.8212 77.403 70.541 77.2024C69.7594 76.6387 68.9087 76.1199 68.2792 75.4144C68.104 75.1679 68.0098 74.873 68.0098 74.5705C68.0098 74.2681 68.104 73.9731 68.2792 73.7267C68.3795 73.5745 68.4522 73.533 68.6251 73.6333C69.0539 73.903 69.4759 74.1002 69.967 73.7267C70.1433 73.5883 70.2021 73.8269 70.2332 73.9342C70.4719 74.9233 70.7313 75.9124 70.9906 76.9049Z" fill="#F53B36"/>
<path id="Vector_30" d="M69.0686 68.5977C69.1694 69.1159 69.3093 69.6257 69.487 70.1228C69.7776 71.0047 69.5977 71.3471 68.7331 71.5788C68.5348 71.6055 68.3422 71.6639 68.1625 71.7517C67.7786 72.0215 67.4362 72.2705 67.1249 71.6584C66.8725 71.1361 66.3779 70.6208 67.035 70.0606C67.1457 69.9637 67.2356 69.8461 67.3809 69.8807C68.4634 70.1228 68.868 69.5107 69.0686 68.5977Z" fill="#F53B36"/>
<path id="Vector_31" d="M68.2136 61.992L68.0303 61.1309C68.0422 60.4699 68.3027 59.8376 68.76 59.3602C68.8625 59.2215 69.0117 59.1244 69.1801 59.0869C69.3485 59.0494 69.5248 59.074 69.6765 59.1561C70.0984 59.3636 70.0465 59.7199 69.9151 60.0346C69.5675 60.7744 69.122 61.4642 68.5905 62.0854C68.511 62.1684 68.3312 62.0785 68.2136 61.992Z" fill="#FCFCFC"/>
<path id="Vector_32" d="M69.8357 50.0986C70.1193 51.482 68.6045 53.5813 67.3906 54.1761C67.5463 52.4296 68.8432 51.4474 69.8357 50.0986Z" fill="#FCFCFC"/>
<path id="Vector_33" d="M120.733 59.7479C120.754 60.2217 120.488 60.2355 120.277 60.2252C119.696 60.1906 119.488 59.7583 119.388 59.2741C119.354 59.1116 119.309 58.8453 119.665 58.9283C119.891 58.9816 120.103 59.0823 120.287 59.2235C120.471 59.3648 120.623 59.5435 120.733 59.7479Z" fill="#F53B36"/>
<path id="Vector_34" d="M14.8508 112.848C14.581 112.423 13.7475 113.156 13.8132 112.285C13.834 111.939 14.3216 112.018 14.5049 112.05C14.7954 112.091 15.2139 112.202 15.2727 112.596C15.3315 112.99 14.9926 112.752 14.8508 112.848Z" fill="#FCFCFC"/>
<path id="Vector_35" d="M56.0022 42.8013C56.189 43.1471 56.1855 43.448 56.4242 43.6451C56.6194 43.8276 56.7999 44.0254 56.9637 44.2365C56.023 43.9598 55.7878 43.6313 56.0022 42.8013Z" fill="#FCFCFC"/>
<path id="Vector_36" d="M136.113 46.0454C136.113 46.1803 136.134 46.3636 135.923 46.3428C135.78 46.3306 135.645 46.2697 135.541 46.1703C135.437 46.0709 135.371 45.9389 135.352 45.7964C135.328 45.6822 135.383 45.5266 135.511 45.5577C135.781 45.6165 136.085 45.6719 136.113 46.0454Z" fill="#FCFCFC"/>
<path id="Vector_37" d="M139.471 47.0449L140.183 47.8611C139.827 47.7608 139.322 47.8196 139.471 47.0449Z" fill="#FCFCFC"/>
<path id="Vector_38" d="M23.7629 115.124C23.8182 115.311 23.8631 115.439 23.8908 115.57C23.834 115.598 23.775 115.621 23.7144 115.639C23.6752 115.546 23.6484 115.449 23.6349 115.349C23.6314 115.293 23.6971 115.235 23.7629 115.124Z" fill="#FCFCFC"/>
<path id="Vector_39" d="M125.582 71.4128L125.434 71.2952L125.53 71.2261L125.572 71.4232L125.582 71.4128Z" fill="#F53B36"/>
<path id="Vector_40" d="M1.30078 106.782C1.36649 106.671 1.45987 106.64 1.55324 106.73C1.574 106.751 1.50483 106.858 1.47716 106.924L1.30078 106.782Z" fill="#FCFCFC"/>
<path id="Vector_41" d="M24.8008 15.3762C24.4549 15.5284 24.1471 15.6702 23.829 15.4489C23.8111 15.4147 23.8018 15.3767 23.8018 15.3382C23.8018 15.2996 23.8111 15.2617 23.829 15.2275C24.2059 14.9474 24.4895 15.269 24.8008 15.3762Z" fill="#FCFCFC"/>
<path id="Vector_42" d="M113.06 25.3019C112.904 26.6438 112.755 27.9441 111.828 28.9851C111.439 29.3688 110.925 29.5996 110.379 29.6353C110.224 29.67 110.063 29.6709 109.908 29.6378C109.752 29.6047 109.605 29.5385 109.478 29.4436C109.35 29.3488 109.244 29.2275 109.168 29.0881C109.091 28.9487 109.045 28.7944 109.034 28.6358C108.83 27.4357 109.511 26.5192 110.708 26.4362C110.896 26.4329 111.076 26.3607 111.215 26.2332C111.353 26.1056 111.44 25.9318 111.458 25.7446C111.576 25.2742 111.69 24.8004 111.849 24.3439C111.942 24.0845 112.077 23.7871 112.458 23.8666C112.599 23.8963 112.726 23.9729 112.819 24.0841C112.911 24.1952 112.963 24.3343 112.966 24.4788C113.008 24.7727 113.032 25.0598 113.06 25.3019Z" fill="#010101"/>
<path id="Vector_43" d="M106.921 25.3502C106.757 25.3849 106.587 25.3867 106.422 25.3553C106.257 25.3239 106.1 25.2599 105.96 25.1672C105.82 25.0745 105.7 24.9549 105.607 24.8153C105.513 24.6757 105.449 24.519 105.417 24.3542C105.254 23.787 105.707 22.3137 106.129 22.0439C106.454 21.8364 106.499 22.0439 106.551 22.3137C106.797 23.6244 106.81 23.6313 108.073 23.2475C108.443 23.1368 108.816 23.0434 109.086 23.4273C109.356 23.8112 109.121 24.0913 108.944 24.3784C108.747 24.7276 108.447 25.0079 108.085 25.1817C107.723 25.3554 107.317 25.4142 106.921 25.3502Z" fill="#010101"/>
<path id="Vector_44" d="M108.602 32.0009C107.505 32.0009 106.582 31.3093 106.561 30.6418C106.542 30.5424 106.547 30.44 106.575 30.3429C106.604 30.2458 106.655 30.1569 106.725 30.0835C106.794 30.0101 106.88 29.9544 106.976 29.921C107.071 29.8876 107.173 29.8774 107.274 29.8913C107.92 29.8913 109.283 30.8873 109.228 31.3646C109.215 31.5275 109.146 31.6808 109.031 31.7973C108.917 31.9137 108.764 31.9859 108.602 32.0009Z" fill="#010101"/>
<path id="Vector_45" d="M58.7796 71.5997C58.6317 71.6213 58.4814 71.6213 58.3335 71.5997C58.081 71.489 57.794 71.3956 57.749 71.0636C57.7556 71.0268 57.7715 70.9923 57.7951 70.9632C57.8187 70.9342 57.8492 70.9116 57.8839 70.8976C58.2055 70.8596 58.2609 71.1847 58.4511 71.3299C58.5306 71.3852 58.6067 71.4544 58.7796 71.5997Z" fill="#010101"/>
<path id="Vector_46" d="M111.555 85.3779C112.101 85.3779 112.495 84.9456 112.986 84.7415C113.194 84.6551 113.419 84.4752 113.616 84.6758C113.813 84.8764 113.64 85.1427 113.484 85.2741C111.624 86.8408 109.78 88.4455 107.225 88.7602C106.948 88.7948 106.533 88.9089 106.433 88.6288C106.332 88.3487 106.637 88.0512 106.882 87.8818C108.224 86.9618 109.379 85.7479 111.032 85.3225C111.207 85.2749 111.394 85.2946 111.555 85.3779Z" fill="#010101"/>
<path id="Vector_47" d="M110.223 83.6939C109.995 83.6939 110.037 83.5314 110.03 83.4103C110.03 83.2063 110.009 83.0057 110.32 83.0437C110.496 83.0679 110.666 83.106 110.666 83.3066C110.694 83.6109 110.358 83.5418 110.223 83.6939Z" fill="#010101"/>
<path id="Vector_48" d="M161.491 74.7743C160.519 75.5144 160.55 75.6424 161.726 76.4793C160.688 76.7733 158.299 76.0228 157.406 75.096C158.717 74.5288 160.024 74.84 161.491 74.7743Z" fill="#010101"/>
</g>
<defs>
<clipPath id="clip0_738_4779">
<rect width="181" height="141.29" fill="white"/>
</clipPath>
</defs>
</svg>
